<?xml version="1.0" standalone="no"?>
<!DOCTYPE svg PUBLIC "-//W3C//DTD SVG 20010904//EN"
 "http://www.w3.org/TR/2001/REC-SVG-20010904/DTD/svg10.dtd">
<svg version="1.0" xmlns="http://www.w3.org/2000/svg"
 width="1903.000000pt" height="979.000000pt" viewBox="0 0 1903.000000 979.000000"
 preserveAspectRatio="xMidYMid meet">

<g transform="translate(0.000000,979.000000) scale(0.100000,-0.100000)"
fill="#000000" stroke="none">
<path d="M0 4895 l0 -4895 9515 0 9515 0 0 4895 0 4895 -9515 0 -9515 0 0
-4895z m5449 4313 c32 -16 55 -38 76 -72 l30 -49 0 -216 c0 -212 0 -217 -25
-261 -14 -24 -44 -57 -67 -74 -36 -25 -54 -30 -120 -34 -45 -2 -97 1 -123 8
-60 16 -123 81 -138 143 -16 60 -16 393 -1 438 35 104 123 153 258 144 39 -3
82 -13 110 -27z m2696 1 c50 -24 92 -82 106 -149 6 -30 10 -121 7 -223 -3
-169 -4 -173 -33 -227 -41 -74 -107 -110 -204 -110 -89 0 -135 14 -181 56 -65
59 -75 101 -75 314 0 199 7 237 52 291 48 56 122 81 223 73 36 -3 83 -14 105
-25z m584 5 c49 -21 80 -52 102 -102 16 -38 19 -70 19 -235 0 -110 -5 -209
-11 -232 -15 -55 -82 -120 -139 -135 -64 -17 -175 -8 -227 19 -87 44 -113 122
-113 342 0 204 23 285 95 329 66 41 194 47 274 14z m4123 -1 c66 -26 118 -106
118 -181 0 -26 -24 -38 -98 -48 -49 -6 -49 -6 -55 25 -14 71 -101 98 -152 46
-25 -24 -25 -27 -25 -189 l0 -165 28 -21 c21 -18 36 -21 72 -17 51 6 80 34 80
78 0 25 -4 29 -29 29 -55 0 -61 7 -61 71 0 71 1 71 140 67 l95 -3 3 -95 c4
-124 -3 -168 -35 -218 -39 -60 -91 -85 -188 -90 -138 -7 -218 42 -251 154 -22
76 -16 401 8 454 31 67 78 103 163 124 33 8 147 -5 187 -21z m1523 -3 c70 -31
115 -99 115 -172 0 -33 -19 -43 -98 -54 l-48 -6 -12 41 c-14 46 -35 61 -84 61
-76 0 -98 -47 -98 -210 0 -172 25 -219 112 -207 50 7 67 22 75 70 5 36 5 37
-25 37 -55 0 -62 7 -62 65 0 33 5 57 14 64 9 8 50 11 117 9 l104 -3 3 -100 c6
-172 -24 -241 -120 -285 -60 -27 -177 -27 -238 1 -56 25 -77 44 -104 94 -20
37 -21 54 -21 255 0 204 1 217 23 257 42 79 133 117 252 106 30 -2 73 -13 95
-23z m-11054 10 c83 -23 149 -101 149 -176 0 -32 -2 -33 -57 -44 -32 -6 -64
-13 -71 -15 -7 -3 -20 12 -30 33 -23 49 -82 73 -128 51 -22 -11 -29 -21 -29
-44 0 -32 8 -38 155 -103 118 -52 171 -115 172 -202 1 -155 -179 -259 -356
-206 -91 27 -154 101 -159 184 l-2 37 70 17 c38 9 72 15 74 12 3 -3 10 -19 16
-37 15 -47 73 -74 125 -58 50 15 66 35 54 69 -7 21 -30 35 -116 73 -58 25
-120 56 -136 67 -56 41 -83 131 -62 209 16 55 74 118 122 132 45 13 165 13
209 1z m724 -80 l0 -75 -139 -3 c-82 -1 -145 -7 -153 -14 -7 -6 -13 -22 -13
-37 0 -50 12 -56 117 -61 l98 -5 0 -75 0 -75 -98 -3 c-93 -3 -98 -4 -109 -28
-8 -17 -8 -34 -2 -52 l9 -27 145 -5 145 -5 3 -77 c2 -43 -1 -78 -5 -78 -4 0
-100 -2 -213 -4 -112 -2 -215 0 -227 5 l-23 9 0 338 c0 186 3 342 7 346 4 3
108 5 232 4 l226 -3 0 -75z m311 43 c8 -21 40 -99 70 -173 57 -140 79 -176 89
-149 2 8 6 91 7 184 l3 170 75 0 75 0 0 -345 0 -345 -85 -7 c-53 -4 -89 -3
-96 3 -7 6 -43 89 -81 184 -51 132 -72 175 -85 175 -16 0 -18 -17 -20 -177
l-3 -178 -43 -9 c-25 -5 -55 -5 -75 0 l-32 10 -3 334 c-1 184 0 341 3 347 3 9
31 13 95 13 l90 0 16 -37z m596 -45 c0 -46 0 -202 -1 -348 l-2 -265 -35 -8
c-19 -5 -50 -5 -71 0 l-38 9 -3 334 c-1 184 0 341 3 347 3 9 27 13 75 13 l70
0 2 -82z m1113 51 c70 -36 100 -96 99 -199 0 -89 -16 -140 -55 -185 l-29 -33
30 -54 c62 -109 91 -170 86 -183 -6 -16 -83 -29 -123 -21 -24 6 -36 23 -83
114 l-55 107 -47 3 c-56 4 -57 2 -60 -127 -3 -100 -10 -107 -91 -97 l-57 7 0
351 0 350 168 -4 c156 -3 172 -5 217 -29z m905 8 c75 -33 110 -106 110 -227 0
-53 -6 -78 -27 -121 -37 -71 -84 -96 -203 -105 -59 -4 -89 -11 -97 -22 -8 -10
-13 -49 -13 -108 l0 -91 -47 -6 c-27 -3 -60 -3 -75 0 l-28 5 0 342 c0 189 3
346 8 350 14 15 334 0 372 -17z m530 12 c59 -13 116 -57 136 -106 17 -40 18
-187 3 -234 -7 -19 -22 -45 -35 -60 -13 -14 -24 -31 -24 -38 0 -8 25 -61 56
-118 31 -57 53 -111 50 -119 -4 -12 -21 -14 -78 -12 l-72 3 -50 95 c-67 126
-62 120 -105 120 -55 0 -61 -11 -61 -122 l0 -98 -75 0 -75 0 0 343 c0 189 3
347 7 350 11 11 268 8 323 -4z m1717 -6 c4 -10 23 -83 43 -163 52 -210 57
-207 123 75 l23 100 119 3 c74 2 121 -1 125 -8 9 -14 13 -630 5 -663 -7 -27
-8 -28 -77 -25 l-70 3 0 207 c0 154 -3 210 -13 218 -20 17 -32 -8 -55 -110
-69 -311 -76 -330 -129 -330 -50 0 -43 -20 -146 418 -3 13 -13 22 -25 22 -19
0 -20 -7 -20 -215 l0 -215 -75 0 -75 0 0 343 c0 189 3 347 7 350 3 4 57 7 120
7 99 0 115 -2 120 -17z m906 3 c107 -25 142 -82 142 -226 0 -167 -46 -216
-219 -234 l-101 -11 -5 -103 c-4 -76 -9 -105 -20 -113 -14 -9 -113 -4 -131 7
-10 6 -12 677 -2 687 12 13 277 7 336 -7z m752 -66 l0 -75 -95 -5 -95 -5 -5
-265 -5 -265 -75 0 -75 0 -3 254 c-1 163 -6 259 -13 267 -7 9 -42 14 -97 16
l-87 3 -3 78 -3 77 278 -2 278 -3 0 -75z m863 3 l-3 -78 -139 -3 c-82 -1 -145
-7 -153 -14 -17 -13 -17 -74 0 -85 6 -4 55 -10 107 -13 l95 -5 3 -77 3 -78
-99 0 c-63 0 -102 -4 -110 -12 -16 -16 -15 -73 1 -86 8 -7 71 -13 153 -14
l139 -3 3 -78 3 -77 -233 2 -233 3 -3 335 c-1 184 0 341 3 347 3 10 59 13 235
13 l231 0 -3 -77z m307 45 c8 -18 40 -96 71 -173 31 -77 62 -146 67 -153 22
-28 28 12 30 179 l2 174 75 0 75 0 0 -345 0 -345 -93 0 -93 0 -74 175 c-45
108 -80 176 -89 178 -14 3 -16 -18 -16 -172 0 -199 1 -196 -84 -196 -79 0 -76
-13 -76 364 0 183 3 336 7 339 3 4 46 7 95 7 l88 0 15 -32z m1193 -320 l2
-348 -75 0 -75 0 0 350 0 351 73 -3 72 -3 3 -347z m325 320 c8 -18 41 -96 72
-173 60 -146 80 -180 90 -154 2 8 6 91 7 184 l3 170 69 3 c49 2 72 -1 77 -10
13 -20 11 -675 -1 -683 -17 -10 -170 -9 -180 1 -10 10 -78 172 -118 282 -19
51 -32 72 -44 72 -16 0 -18 -17 -20 -177 l-3 -178 -75 0 -75 0 -3 335 c-1 184
0 341 3 347 3 9 31 13 94 13 l89 0 15 -32z m1512 9 c4 -13 5 -48 3 -78 l-3
-54 -150 -5 -150 -5 -3 -47 c-4 -56 -2 -57 128 -60 l85 -3 1 -64 c1 -36 0 -71
-3 -78 -4 -9 -31 -13 -98 -13 -106 0 -118 -7 -113 -67 l3 -38 150 -5 150 -5 3
-69 c2 -38 -1 -72 -5 -77 -10 -10 -403 -24 -437 -15 l-26 6 0 350 0 350 230 0
230 0 5 -23z m570 -57 l0 -75 -141 -3 c-156 -3 -168 -7 -166 -63 0 -17 4 -34
7 -38 4 -3 52 -8 108 -11 l102 -5 0 -75 0 -75 -94 -3 c-52 -1 -101 -8 -108
-14 -14 -11 -17 -66 -5 -85 5 -9 52 -13 152 -15 l145 -3 3 -68 c2 -38 -1 -74
-7 -80 -7 -9 -73 -11 -235 -9 l-226 3 0 350 0 349 233 -2 232 -3 0 -75z m490
50 c77 -38 100 -88 100 -210 0 -100 -12 -136 -54 -174 -12 -11 -21 -24 -21
-31 0 -6 25 -58 55 -115 31 -57 54 -110 53 -119 -3 -13 -18 -16 -77 -16 l-74
0 -56 105 -56 105 -45 0 -45 0 -5 -104 c-5 -104 -5 -105 -33 -112 -15 -4 -49
-4 -75 -1 l-47 7 -3 335 c-1 184 0 341 3 348 4 11 37 13 168 11 149 -4 166 -6
212 -29z m-7394 -1370 c5 0 61 -52 123 -116 94 -96 117 -115 134 -110 12 4 30
2 41 -3 11 -6 22 -7 25 -2 3 4 16 6 30 4 36 -7 49 23 37 94 -4 32 -8 76 -7 98
1 33 5 41 23 43 34 5 53 -33 54 -108 2 -99 7 -112 64 -133 88 -33 99 -33 125
5 29 42 60 67 82 68 26 0 32 -19 18 -61 -9 -27 -10 -51 -4 -81 l10 -43 48 3
c27 1 54 -2 61 -8 7 -6 16 -34 19 -62 9 -66 18 -81 61 -107 36 -21 36 -22 29
-69 -4 -26 -11 -58 -16 -71 -13 -36 4 -49 60 -44 38 4 52 1 75 -17 32 -26 36
-60 6 -67 -12 -4 -18 -11 -15 -20 3 -8 -4 -37 -15 -64 -13 -30 -19 -58 -15
-74 3 -14 9 -36 12 -50 9 -35 -12 -32 -31 5 -17 33 -20 86 -5 95 14 9 12 43
-2 48 -7 2 -17 -2 -23 -9 -8 -10 -15 -8 -35 9 -27 24 -70 100 -70 123 0 8 -7
14 -15 14 -10 0 -15 10 -15 31 0 25 -5 32 -31 41 -30 10 -55 50 -43 69 3 5 -6
9 -20 9 -21 0 -26 5 -26 24 0 38 -10 56 -32 56 -11 0 -26 13 -36 30 -12 21
-22 28 -37 24 -11 -3 -29 2 -40 10 -19 13 -19 15 -2 21 9 4 17 13 17 21 0 17
-31 19 -47 3 -13 -13 -53 9 -53 30 0 11 -3 10 -13 -3 -13 -17 -15 -17 -45 -2
-31 16 -36 25 -33 54 2 10 -2 10 -17 1 -12 -7 -17 -19 -14 -31 3 -14 -1 -18
-21 -18 -19 0 -28 7 -36 30 -5 17 -17 30 -25 30 -10 0 -13 -6 -10 -15 8 -20
-43 -21 -65 -2 -12 10 -34 12 -86 7 -55 -5 -75 -3 -92 9 -12 9 -23 21 -23 27
0 15 -26 25 -45 18 -19 -8 -150 55 -139 66 15 14 115 -18 171 -55 58 -38 119
-48 129 -20 5 12 10 13 20 4 11 -9 14 -8 14 2 0 15 -216 229 -231 229 -6 0 -7
5 -4 11 4 6 14 8 22 5 8 -3 19 -6 24 -6z m-31 -40 c0 -5 -2 -10 -4 -10 -3 0
-8 5 -11 10 -3 6 -1 10 4 10 6 0 11 -4 11 -10z m-158 -128 c4 -9 154 -82 169
-82 14 0 52 -23 66 -40 9 -12 8 -19 -6 -33 -16 -16 -20 -17 -47 -4 -90 45
-117 57 -121 53 -3 -3 14 -15 37 -28 24 -13 53 -29 66 -36 13 -7 24 -17 24
-22 0 -11 -30 -49 -72 -92 -16 -15 -28 -32 -28 -38 0 -5 -7 -10 -15 -10 -8 0
-15 6 -15 14 0 8 -6 16 -14 19 -7 3 -16 15 -19 26 -6 24 7 27 47 11 14 -5 26
-7 26 -5 0 3 -20 26 -45 52 -73 76 -55 91 32 27 34 -25 53 -30 53 -14 0 6 -5
10 -10 10 -11 0 -62 34 -88 57 -7 7 -19 10 -28 6 -8 -3 -25 3 -37 14 -12 11
-32 26 -44 32 -16 8 -23 21 -23 40 0 19 7 31 23 39 26 13 64 15 69 4z m447
-219 c38 -24 52 -43 34 -43 -5 0 -13 -12 -20 -26 -11 -23 -10 -27 7 -31 11 -3
20 -14 20 -25 0 -14 6 -19 23 -16 23 3 26 19 12 86 l-6 33 63 -3 c44 -2 62 -7
61 -15 -2 -7 2 -13 7 -13 6 0 10 -10 10 -23 0 -13 4 -27 9 -32 15 -18 22 -93
8 -98 -8 -4 -5 -11 10 -24 29 -24 33 -58 8 -77 -11 -8 -17 -18 -13 -21 12 -12
39 4 45 24 3 11 11 22 18 25 19 7 6 53 -16 59 -20 5 -27 27 -9 27 6 0 10 13
10 30 0 23 5 31 25 36 14 3 25 9 25 13 0 4 9 7 19 6 21 -1 59 -43 81 -90 8
-16 28 -45 44 -63 17 -18 31 -38 32 -45 0 -7 2 -17 2 -23 1 -7 13 -15 27 -18
26 -7 32 -20 15 -31 -18 -11 -10 -25 15 -25 20 0 25 -5 25 -25 0 -18 7 -28 25
-35 14 -5 25 -16 25 -24 0 -8 8 -21 18 -28 20 -14 34 -56 32 -101 0 -21 5 -30
20 -34 14 -4 20 -14 20 -34 0 -15 5 -31 10 -34 6 -4 8 -11 4 -16 -3 -6 3 -20
14 -32 11 -12 23 -37 27 -56 7 -33 7 -34 -24 -29 -20 3 -30 1 -28 -6 2 -6 17
-12 33 -14 36 -4 54 -44 61 -137 4 -45 12 -69 35 -101 18 -25 27 -47 23 -55
-5 -6 -9 -28 -11 -47 -2 -26 2 -35 16 -39 13 -3 19 -14 19 -32 1 -87 25 -192
57 -252 15 -27 21 -67 27 -189 13 -277 37 -483 58 -496 5 -3 9 -45 9 -93 0
-80 2 -89 25 -111 18 -17 25 -34 25 -60 0 -20 3 -40 8 -44 4 -4 8 -33 9 -64 3
-81 13 -123 34 -151 15 -19 19 -41 19 -103 0 -75 1 -79 20 -73 16 5 23 -1 34
-27 32 -73 49 -135 48 -175 -1 -36 2 -42 21 -45 14 -2 24 -12 27 -28 3 -14 24
-63 48 -109 45 -91 50 -111 27 -111 -9 0 -18 -8 -21 -17 -3 -10 -11 -28 -17
-40 -6 -13 -7 -26 -3 -30 8 -8 55 46 56 64 0 27 28 -1 40 -40 7 -23 16 -51 22
-62 11 -25 4 -434 -9 -495 -5 -25 -18 -63 -30 -85 -11 -22 -33 -69 -48 -105
-19 -45 -45 -81 -81 -115 -52 -50 -84 -111 -84 -163 0 -13 -9 -35 -19 -50 -19
-27 -36 -92 -32 -124 1 -9 -6 -32 -16 -50 -22 -43 -43 -99 -43 -119 0 -9 -7
-41 -16 -70 -34 -115 -54 -140 -84 -104 -16 19 -34 19 -50 0 -9 -11 -8 -19 4
-37 9 -12 16 -30 16 -40 0 -9 9 -33 21 -53 18 -30 26 -54 42 -120 5 -20 19
-35 27 -30 4 2 19 -4 33 -15 14 -11 31 -20 39 -20 35 -1 205 -116 272 -186 28
-28 61 -57 74 -63 12 -7 22 -18 22 -25 0 -7 11 -23 25 -36 15 -14 25 -35 25
-52 0 -18 7 -32 18 -36 47 -21 83 -50 89 -72 3 -14 11 -32 17 -40 33 -45 45
-83 28 -94 -5 -3 -26 1 -48 9 -57 21 -128 18 -185 -6 l-50 -22 -34 40 c-19 22
-56 51 -82 64 -43 21 -62 23 -193 24 l-145 0 -3 -84 -3 -83 -33 5 c-44 7 -116
-27 -116 -54 0 -11 14 -46 30 -79 30 -60 30 -60 75 -60 l44 0 3 -97 3 -98 140
1 c123 0 146 3 192 23 29 13 57 29 64 37 9 11 18 8 49 -17 39 -31 114 -59 159
-59 14 1 50 9 79 19 44 15 55 16 59 5 3 -9 21 -14 47 -14 38 0 50 -7 126 -75
46 -41 88 -81 92 -89 4 -7 44 -50 88 -96 44 -45 80 -84 80 -86 0 -2 -26 -16
-57 -30 -32 -14 -66 -30 -75 -35 -10 -5 -28 -9 -40 -9 -13 -1 -34 -7 -48 -15
-14 -8 -37 -14 -52 -15 -15 0 -30 -4 -33 -10 -3 -5 -21 -10 -39 -10 -17 0 -37
-5 -43 -11 -10 -10 -30 -16 -118 -34 -16 -4 -39 -10 -50 -15 -11 -5 -33 -11
-50 -15 -16 -3 -56 -12 -87 -18 -31 -7 -60 -15 -64 -20 -4 -4 -17 -7 -29 -7
-11 0 -25 -4 -30 -9 -6 -5 -44 -14 -85 -20 -41 -5 -97 -15 -125 -21 -27 -7
-72 -14 -100 -16 -27 -3 -59 -9 -70 -15 -26 -13 -173 -30 -305 -35 -58 -3
-114 -9 -125 -14 -11 -5 -42 -11 -70 -13 -27 -3 -86 -12 -130 -22 -44 -10
-107 -19 -140 -22 -33 -2 -69 -8 -80 -13 -21 -10 -47 -12 -327 -32 -97 -7
-180 -16 -184 -21 -4 -4 -69 -7 -144 -7 -110 0 -140 3 -150 15 -7 8 -23 15
-36 15 -27 0 -31 12 -9 30 26 22 17 46 -35 89 l-50 42 0 110 c0 96 -2 111 -20
129 -24 24 -38 25 -62 3 -16 -14 -18 -33 -18 -146 l0 -130 51 -50 c50 -48 59
-67 22 -49 -49 26 -75 31 -155 34 -71 2 -92 7 -117 26 -20 14 -45 22 -73 22
-24 0 -52 7 -62 15 -11 8 -28 15 -38 15 -9 0 -33 9 -53 20 -20 11 -41 20 -49
20 -7 0 -23 11 -36 25 -13 14 -29 25 -36 25 -7 0 -17 6 -21 13 -4 8 -21 22
-38 33 -43 27 -51 33 -111 88 -55 50 -61 63 -45 94 19 38 30 69 36 106 5 33
27 90 56 148 5 10 9 42 9 72 0 47 4 57 25 75 26 20 75 85 75 99 0 5 16 23 35
42 19 19 35 39 35 46 0 6 6 17 14 23 8 7 16 28 19 49 5 35 17 91 33 154 3 15
12 33 20 39 8 6 14 29 14 50 0 21 5 41 10 44 6 3 10 28 10 55 0 27 5 52 11 55
5 4 10 39 10 78 0 127 8 176 40 239 24 47 12 72 -83 182 -21 24 -38 46 -38 49
0 3 15 7 33 9 47 4 39 22 -13 28 -34 4 -41 7 -30 15 11 8 5 11 -29 15 -55 6
-69 30 -17 30 20 0 36 5 36 10 0 6 -18 10 -39 10 -49 0 -64 18 -22 26 17 4 31
13 31 20 0 16 -16 19 -25 4 -9 -15 -78 -13 -73 3 3 6 14 13 26 15 37 6 24 22
-16 22 -37 0 -40 2 -53 43 -7 23 -28 72 -46 110 -18 37 -33 72 -33 77 0 5 -8
24 -18 42 -10 18 -22 52 -25 75 -4 24 -15 57 -25 75 -11 18 -22 57 -25 87 -4
30 -11 59 -17 65 -5 5 -10 22 -10 37 0 15 -4 31 -10 34 -6 4 -10 75 -10 182 0
158 2 177 19 200 14 17 20 39 19 71 -1 51 27 157 49 183 7 8 13 22 13 31 0 8
9 23 20 33 11 10 20 30 20 45 0 15 11 48 25 74 14 26 25 57 25 70 0 12 4 26 9
31 20 23 41 107 30 127 -6 10 -9 31 -7 46 3 24 6 27 38 24 19 -2 39 -8 45 -13
13 -13 189 -11 202 2 6 6 55 13 109 16 98 5 100 4 167 -31 55 -28 83 -36 150
-42 79 -6 83 -5 106 20 14 14 35 26 48 26 29 0 63 17 63 31 0 16 -78 1 -118
-22 -47 -27 -52 -24 -52 24 l-1 42 -14 -30 c-14 -32 -19 -25 -9 13 4 12 12 22
19 22 8 0 21 8 31 17 18 18 35 30 92 59 17 10 32 21 32 26 0 4 -21 -3 -47 -17
-118 -64 -122 -65 -128 -55 -3 5 -1 19 5 30 9 16 8 25 0 36 -7 8 -9 25 -6 39
6 24 5 25 -14 15 -11 -6 -25 -8 -30 -5 -6 3 -10 -5 -10 -19 0 -18 -4 -24 -15
-20 -8 4 -15 18 -15 32 0 19 -3 23 -11 15 -18 -18 -7 -58 19 -61 18 -3 22 -10
22 -38 0 -19 5 -34 10 -34 6 0 10 16 10 35 0 19 4 35 9 35 14 0 5 -60 -12 -77
-14 -15 -19 -13 -51 13 -19 16 -35 36 -36 44 -1 23 -47 70 -68 70 -10 0 -23 5
-30 12 -9 9 -15 9 -24 0 -7 -7 -20 -12 -30 -12 -10 0 -18 -7 -18 -15 0 -8 9
-15 20 -15 11 0 27 -11 36 -25 9 -14 23 -25 30 -25 17 0 18 -22 3 -37 -8 -8
-5 -13 10 -18 12 -3 21 -13 21 -21 0 -12 -9 -14 -47 -8 -27 4 -65 13 -85 21
-33 13 -39 13 -53 -1 -9 -8 -32 -18 -53 -21 -20 -3 -45 -10 -54 -16 -22 -12
-155 -12 -162 0 -3 5 -33 12 -66 16 -53 6 -62 11 -75 36 -8 15 -32 36 -53 45
-61 28 -112 83 -112 121 0 18 5 33 10 33 6 0 10 8 10 19 0 22 36 32 70 19 29
-11 37 -3 20 17 -9 11 -22 14 -41 10 -24 -6 -27 -4 -22 14 8 33 77 29 99 -4
16 -24 15 -27 -1 -45 -17 -19 -12 -46 6 -34 5 3 17 0 26 -7 35 -30 57 -35 86
-21 38 19 34 61 -6 80 -36 17 -40 13 -22 -22 8 -16 15 -35 15 -42 0 -25 -30
-15 -41 14 -6 15 -18 40 -26 55 -17 33 -18 33 25 42 25 5 33 3 38 -10 4 -9 14
-15 24 -13 9 2 23 -2 31 -9 10 -8 20 -9 29 -2 12 8 9 14 -18 37 -18 15 -32 31
-32 35 0 15 140 1 161 -16 25 -22 25 0 -1 33 -27 34 -25 49 8 56 48 10 52 13
52 36 0 16 22 46 66 88 113 112 124 135 170 350 9 41 32 85 54 105 11 10 20
31 20 47 0 16 5 39 12 51 14 25 27 113 34 232 3 44 10 84 15 89 5 6 9 27 9 47
0 21 5 41 10 44 7 5 10 103 9 292 0 156 2 287 5 290 3 4 6 31 6 62 1 68 18 98
49 82 32 -18 36 -13 9 13 -24 21 -25 26 -15 60 8 23 18 36 29 36 24 0 23 12
-2 28 -17 11 -18 15 -8 35 7 12 23 34 36 48 13 15 25 33 26 40 7 35 27 69 40
69 8 0 28 -11 45 -25 22 -19 36 -24 55 -19 14 3 26 11 26 16 0 6 -10 8 -22 5
-24 -7 -58 17 -58 38 0 7 10 15 21 18 15 4 20 11 16 21 -4 9 -2 16 3 16 6 0
10 18 10 40 0 33 3 40 20 40 11 0 20 6 20 13 0 6 11 22 25 35 20 19 28 21 45
12 16 -9 20 -8 20 5 0 8 -4 15 -10 15 -5 0 -10 7 -10 16 0 10 7 14 20 12 10
-2 26 6 34 17 9 11 16 14 16 8 0 -18 30 -16 30 1 0 8 -5 16 -11 18 -13 4 9 48
24 48 5 0 15 7 23 15 9 8 24 15 35 15 10 0 19 5 19 10 0 6 -9 10 -20 10 -11 0
-20 7 -20 15 0 8 7 15 15 15 9 0 18 7 21 15 7 17 44 21 44 5 0 -5 -7 -10 -15
-10 -22 0 -19 -8 15 -42 17 -16 28 -33 25 -38 -9 -14 16 -23 28 -11 8 8 8 11
-2 11 -9 0 -11 8 -8 21 3 12 0 22 -9 26 -12 4 -12 8 -2 20 10 12 8 18 -11 32
l-24 18 24 26 c28 33 42 34 83 2 40 -31 82 -33 89 -5 3 11 1 20 -4 20 -5 0 -9
-7 -9 -15 0 -28 -47 -14 -97 29 -35 30 -19 46 47 46 46 0 67 -6 99 -27z m-869
-108 c55 -51 76 -65 100 -65 35 0 64 -13 97 -43 19 -17 27 -19 48 -9 39 18 33
54 -14 85 -22 15 -51 29 -64 33 -24 5 -43 31 -33 41 3 3 29 -6 58 -20 29 -15
67 -29 83 -32 l30 -7 -26 15 c-14 7 -36 17 -50 20 -13 4 -35 16 -49 27 l-25
20 60 -6 c33 -3 84 -15 114 -26 43 -17 57 -19 72 -10 28 18 35 15 57 -22 14
-24 17 -36 9 -39 -18 -6 -74 12 -122 39 -53 29 -69 31 -35 4 21 -17 23 -21 10
-30 -12 -7 -12 -10 -1 -10 7 0 11 -6 8 -15 -4 -9 5 -18 28 -27 39 -13 43 -27
19 -63 -19 -29 -39 -32 -52 -8 -9 15 -11 15 -26 1 -20 -20 -20 -28 -2 -28 41
0 15 -47 -43 -78 -23 -12 -28 -10 -64 25 -25 24 -41 33 -44 26 -8 -21 -22 -15
-39 18 -8 17 -11 28 -5 25 22 -14 10 11 -17 37 -16 16 -35 25 -44 22 -8 -3
-31 8 -53 25 -21 17 -53 39 -71 50 -31 20 -51 61 -39 80 16 26 58 8 125 -55z
m1180 27 c0 -12 -23 -32 -37 -32 -19 0 -16 28 5 33 28 8 32 7 32 -1z m-751
-79 l35 -16 -28 -14 c-25 -13 -30 -13 -46 2 -10 9 -20 25 -23 35 -5 20 2 19
62 -7z m-518 -192 c24 -11 69 -23 99 -27 54 -7 80 -18 80 -35 0 -15 -49 -10
-90 10 -22 11 -62 22 -90 26 -27 4 -52 11 -56 16 -3 5 -15 9 -27 9 -18 0 -19
2 -7 10 22 14 42 12 91 -9z m277 -14 c29 -30 31 -35 20 -60 -15 -31 -19 -32
-57 -13 -46 24 -55 41 -41 76 16 39 38 38 78 -3z m-280 -28 c2 -5 19 -9 37 -9
19 0 36 -4 40 -9 3 -6 27 -13 53 -16 66 -9 112 -31 112 -54 0 -51 -22 -64 -57
-32 -27 26 -102 63 -116 58 -6 -2 13 -16 44 -30 32 -16 62 -39 72 -56 20 -35
11 -45 -24 -26 -13 8 -31 17 -39 21 -8 3 -44 19 -79 36 -39 17 -70 26 -80 22
-12 -6 -11 -8 9 -11 43 -7 109 -44 103 -59 -4 -10 5 -14 33 -14 22 0 47 -7 57
-14 16 -12 17 -17 5 -37 -28 -50 -36 -54 -74 -35 -34 16 -104 22 -104 9 0 -19
36 -43 64 -42 17 1 23 3 14 6 -20 5 -24 23 -5 23 6 0 21 -7 32 -16 16 -12 17
-16 6 -24 -12 -7 -12 -13 4 -36 16 -25 16 -28 2 -39 -10 -7 -14 -20 -11 -32 3
-11 1 -24 -5 -27 -6 -4 -11 -16 -11 -27 0 -10 -4 -19 -9 -19 -5 0 -8 10 -8 23
1 12 -2 34 -6 49 -5 21 -3 27 10 30 14 3 12 8 -12 30 -29 28 -48 30 -26 4 17
-20 -3 -30 -30 -16 -26 14 -224 18 -224 5 0 -6 48 -11 108 -13 68 -2 107 -7
107 -13 0 -6 -7 -8 -16 -5 -9 3 -58 6 -110 6 -77 0 -96 3 -101 16 -12 31 21
46 112 52 57 3 88 9 92 18 8 21 -16 53 -52 69 -41 16 -42 24 -14 85 25 55 36
134 20 144 -6 4 -11 12 -11 17 0 13 83 1 88 -12z m-6138 -59 c0 -37 3 -40 44
-58 56 -25 61 -35 34 -67 -22 -25 -24 -26 -53 -11 -38 20 -79 20 -95 1 -18
-22 10 -49 66 -65 25 -7 61 -28 80 -45 28 -27 34 -40 34 -74 0 -57 -23 -97
-70 -121 -38 -19 -40 -23 -40 -66 l0 -45 -37 3 c-37 3 -38 4 -41 45 -3 37 -7
44 -30 49 -32 8 -92 42 -92 53 0 5 11 20 24 34 l24 26 38 -20 c43 -21 67 -24
95 -9 22 12 25 42 6 58 -7 6 -37 20 -68 31 -68 26 -99 57 -105 108 -6 49 23
99 71 119 32 13 35 18 35 54 0 40 0 40 40 40 40 0 40 0 40 -40z m1400 13 c6
-6 -125 -519 -135 -531 -4 -5 -70 8 -83 17 -11 6 35 200 114 480 l15 53 41 -5
c22 -3 44 -9 48 -14z m903 -25 c15 -11 15 -18 5 -45 -11 -28 -15 -31 -46 -26
-23 4 -37 1 -43 -8 -17 -27 -10 -39 24 -39 43 0 46 -4 38 -43 -5 -26 -13 -33
-36 -37 l-30 -5 -3 -118 -3 -117 -54 0 -55 0 0 120 c0 113 -1 120 -20 120 -17
0 -20 7 -20 40 0 32 4 40 18 40 13 0 21 13 30 45 9 33 20 50 45 65 37 23 123
27 150 8z m1167 -63 c0 -41 3 -75 8 -75 4 0 16 7 26 15 11 8 30 15 43 15 31 0
79 -25 87 -45 3 -9 6 -77 6 -151 l0 -135 -52 3 -53 3 -3 115 c-1 63 -7 119
-12 124 -6 6 -17 3 -30 -9 -18 -16 -20 -30 -20 -127 l0 -108 -55 0 -55 0 0
219 c0 166 3 221 13 224 6 3 31 6 55 6 l42 1 0 -75z m-186 31 c45 -19 49 -27
23 -60 -22 -27 -24 -28 -65 -15 -79 23 -114 -14 -114 -124 0 -110 42 -154 117
-122 37 15 39 14 62 -7 32 -30 29 -45 -17 -68 -47 -24 -138 -27 -178 -6 -67
35 -102 104 -102 201 0 137 66 215 183 215 32 0 73 -6 91 -14z m1249 0 c61
-28 64 -32 37 -60 -24 -27 -54 -34 -65 -16 -3 6 -24 10 -46 10 -73 0 -112 -75
-95 -183 11 -66 30 -89 74 -85 36 3 37 4 40 45 3 37 0 42 -20 45 -19 2 -24 10
-26 41 l-3 37 80 0 81 0 0 -105 0 -106 -42 -19 c-52 -23 -153 -26 -202 -6
-115 48 -140 280 -40 367 56 49 160 64 227 35z m-5849 -10 c51 -21 76 -60 76
-118 0 -27 -7 -63 -16 -79 -19 -37 -83 -68 -141 -69 l-42 0 -3 -62 -3 -63 -57
-3 -58 -3 0 206 0 205 105 0 c67 0 118 -5 139 -14z m1664 -6 c45 -28 66 -79
52 -129 -11 -41 -80 -135 -111 -152 -36 -19 -19 -29 52 -29 l70 0 -3 -37 -3
-38 -137 -3 -138 -3 0 37 c0 32 10 47 80 120 67 70 80 89 80 117 0 58 -36 74
-84 36 l-26 -20 -30 21 c-35 25 -36 31 -12 53 55 50 151 63 210 27z m334 3
c57 -34 73 -76 73 -193 0 -93 -3 -109 -23 -143 -30 -47 -68 -67 -129 -67 -104
0 -153 66 -153 210 0 102 22 159 72 190 42 25 119 27 160 3z m355 -3 c53 -32
77 -91 77 -190 0 -142 -49 -210 -151 -210 -107 0 -154 57 -161 193 -5 95 14
152 64 197 29 25 43 30 87 30 34 0 63 -7 84 -20z m3840 9 c15 -5 40 -22 56
-37 l27 -26 0 37 0 37 160 0 160 0 0 -39 0 -40 -47 -3 -48 -3 -3 -163 -3 -163
-57 3 -57 3 -2 150 c-1 83 -2 156 -3 163 0 8 -17 12 -48 12 l-49 0 0 -47 c0
-93 -62 -153 -158 -153 l-45 0 0 -65 0 -65 -55 0 -55 0 0 205 0 205 99 0 c55
0 112 -5 128 -11z m1618 1 c-3 -5 -13 -10 -21 -10 -8 0 -14 5 -14 10 0 6 9 10
21 10 11 0 17 -4 14 -10z m-2355 -40 c0 -39 1 -40 34 -40 42 0 48 -7 37 -46
-5 -22 -15 -30 -37 -34 -28 -5 -29 -7 -32 -67 -3 -72 9 -104 40 -100 15 1 27
-8 40 -30 l20 -33 -27 -10 c-14 -5 -48 -10 -74 -10 -79 0 -114 56 -110 179 2
58 0 65 -19 72 -31 12 -31 66 0 78 16 6 22 16 23 37 0 27 4 29 45 35 25 3 48
7 53 7 4 1 7 -16 7 -38z m-5160 -48 c48 -24 60 -53 60 -152 0 -48 5 -91 10
-96 15 -15 -8 -74 -29 -74 -9 0 -27 7 -40 16 -22 16 -25 16 -51 0 -35 -20
-109 -21 -137 -1 -32 22 -48 79 -33 115 18 44 42 60 109 72 61 12 74 25 46 48
-10 8 -31 10 -65 5 -48 -7 -50 -6 -60 20 -13 33 -7 42 33 54 52 15 120 12 157
-7z m601 7 c56 -19 61 -27 41 -61 -13 -22 -22 -27 -37 -22 -11 3 -35 8 -53 11
-29 5 -33 3 -30 -13 2 -12 22 -25 53 -37 95 -34 123 -105 67 -168 -24 -27 -37
-33 -85 -37 -69 -5 -115 3 -145 27 l-24 18 25 29 c22 24 29 27 44 18 28 -17
76 -25 92 -15 23 15 6 36 -38 49 -22 7 -54 24 -71 38 -25 21 -30 33 -30 68 0
82 93 128 191 95z m2113 -10 l26 -21 34 21 c44 27 79 26 113 -3 28 -24 28 -25
31 -165 l4 -141 -56 0 -56 0 0 119 c0 93 -3 120 -14 124 -8 3 -21 -2 -30 -12
-13 -14 -16 -41 -16 -124 l0 -107 -55 0 -55 0 0 119 c0 129 -9 152 -42 111
-15 -18 -18 -40 -18 -126 l0 -104 -55 0 -56 0 3 158 3 157 38 3 c26 2 45 -2
57 -13 13 -12 20 -13 25 -5 20 32 83 37 119 9z m823 2 c55 -26 83 -78 83 -158
0 -104 -58 -163 -160 -163 -71 0 -115 26 -140 83 -43 93 -8 206 75 243 42 19
93 17 142 -5z m336 11 c3 -4 3 -28 0 -55 -5 -43 -8 -47 -33 -47 -48 0 -63 -30
-68 -130 l-4 -90 -54 0 -55 0 3 158 3 157 42 3 c34 3 44 -1 53 -18 l11 -21 30
26 c30 24 63 33 72 17z m1045 -6 c51 -27 59 -44 69 -166 6 -64 7 -125 2 -137
-10 -27 -35 -29 -67 -7 -21 14 -25 14 -47 0 -13 -9 -45 -16 -70 -16 -81 0
-127 70 -94 143 15 33 54 53 117 62 57 8 57 7 41 37 -9 18 -17 19 -68 13 -55
-6 -59 -5 -64 17 -4 13 -7 28 -7 35 0 29 141 43 188 19z m-4725 -13 c3 -10 13
-62 23 -116 10 -54 21 -92 25 -85 4 7 15 51 24 98 23 115 27 120 80 120 24 0
47 -4 50 -10 7 -11 -96 -335 -117 -369 -18 -30 -73 -63 -119 -71 -43 -8 -43
-8 -53 33 -6 25 -3 29 31 43 60 25 68 35 44 53 -13 11 -33 62 -60 158 -23 78
-41 146 -41 152 0 7 22 11 54 11 44 0 56 -4 59 -17z m8755 -75 c2 -14 19 -44
38 -67 26 -30 34 -46 29 -61 -8 -26 -38 -22 -44 5 -2 11 -12 30 -22 43 -10 13
-16 29 -13 37 3 7 1 16 -5 20 -6 3 -11 18 -11 31 0 34 24 26 28 -8z m96 -270
c4 -57 22 -122 40 -146 6 -8 5 -17 -1 -23 -18 -18 -63 71 -57 115 3 24 -1 45
-11 59 -16 22 -20 59 -8 71 15 14 32 -22 37 -76z m-1816 -25 c-5 -44 -28 -40
-28 5 0 21 3 42 7 46 11 11 25 -22 21 -51z m-22 -108 c-3 -8 -21 -21 -41 -29
-19 -8 -39 -25 -45 -38 -8 -22 -9 -21 -9 8 -1 23 5 33 23 42 14 6 33 23 42 37
15 23 19 24 27 10 5 -9 6 -23 3 -30z m10151 -53 c31 -41 2 -92 -53 -92 -23 0
-38 7 -48 22 -23 32 -20 54 11 78 30 24 68 20 90 -8z m-10147 -38 c0 -28 -4
-35 -16 -32 -27 5 -40 34 -25 52 23 28 41 19 41 -20z m1896 19 c21 -28 17 -45
-8 -41 -17 2 -24 11 -26 31 -4 31 14 36 34 10z m5022 1 c25 -7 27 -21 11 -58
-10 -21 -17 -24 -40 -19 -31 6 -59 -10 -59 -33 0 -9 12 -14 34 -14 42 0 48 -7
37 -46 -5 -22 -15 -30 -37 -34 l-29 -5 -3 -123 -3 -123 -52 3 -52 3 -3 122
c-2 117 -3 122 -25 125 -18 2 -22 9 -22 38 0 29 4 36 23 38 14 2 22 10 22 23
0 32 28 77 58 93 28 16 100 20 140 10z m-4126 -56 c55 -42 73 -89 73 -188 0
-75 -3 -91 -27 -132 -33 -56 -92 -88 -161 -88 -121 0 -190 79 -191 220 -1 97
27 158 87 195 37 23 51 26 113 23 59 -3 77 -8 106 -30z m-2846 -35 c-4 -4 -16
3 -26 17 -29 37 -24 49 7 18 15 -15 23 -31 19 -35z m4471 31 c34 -25 59 -90
49 -127 -3 -15 -20 -42 -36 -61 -17 -18 -30 -36 -30 -39 0 -4 20 -40 45 -80
25 -41 45 -78 45 -81 0 -4 -28 -6 -62 -4 l-61 3 -41 75 c-23 41 -46 75 -51 75
-6 0 -11 -35 -13 -78 l-3 -78 -57 3 -57 3 -3 208 -2 209 124 -4 c108 -3 128
-6 153 -24z m539 -31 l27 -58 25 58 25 57 59 0 c32 0 58 -3 58 -6 0 -4 -23
-46 -50 -95 l-51 -90 56 -108 c30 -59 55 -111 55 -114 0 -4 -26 -7 -59 -7
l-59 0 -27 65 c-16 36 -31 65 -35 65 -4 0 -20 -29 -35 -65 l-28 -65 -59 0
c-32 0 -58 3 -58 6 0 4 25 55 56 113 l55 106 -47 88 c-47 86 -64 105 -64 68 0
-41 -11 -51 -56 -51 l-44 0 -2 -162 -3 -163 -55 0 -55 0 -3 163 -2 162 -50 0
-50 0 0 45 0 45 224 0 225 0 27 -57z m368 42 c20 -8 36 -18 36 -21 0 -3 -18
-47 -40 -99 -22 -52 -40 -99 -40 -104 0 -6 11 -11 24 -11 21 0 25 6 31 46 l6
45 47 -3 47 -3 3 -41 c2 -32 8 -43 23 -47 27 -7 27 -72 0 -80 -14 -3 -21 -15
-23 -43 l-3 -39 -52 -3 -53 -3 0 40 c0 48 -15 56 -95 46 -60 -8 -85 3 -85 36
0 36 113 299 128 299 5 0 26 -7 46 -15z m423 -5 c54 -33 77 -90 78 -195 0 -78
-3 -96 -25 -134 -30 -52 -78 -81 -136 -81 -93 0 -157 88 -157 214 0 39 5 87
12 107 11 35 62 91 91 102 35 13 106 6 137 -13z m361 -6 c47 -35 64 -80 59
-160 -7 -123 -65 -194 -194 -234 -64 -20 -76 -16 -87 32 -5 24 -3 28 21 34 54
13 133 63 133 84 0 4 -18 2 -40 -3 -32 -9 -46 -8 -75 6 -101 48 -98 196 5 250
46 24 139 19 178 -9z m348 -5 c45 -41 64 -95 64 -184 0 -64 -5 -90 -22 -125
-60 -118 -209 -122 -271 -6 -18 33 -22 57 -22 131 0 105 20 155 76 193 47 32
136 28 175 -9z m-4530 -96 c1 -104 2 -107 29 -130 19 -17 35 -23 51 -19 17 5
24 2 24 -8 0 -8 -11 -16 -25 -18 -29 -3 -35 -21 -9 -27 9 -1 21 4 26 13 9 17
38 22 38 7 0 -5 -7 -14 -15 -21 -8 -7 -15 -19 -15 -27 0 -11 -7 -13 -25 -9
-15 4 -25 2 -25 -4 0 -6 -5 -8 -10 -5 -12 7 -54 94 -55 112 0 6 -4 15 -8 19
-4 4 -7 29 -7 56 0 27 -4 57 -9 66 -4 9 -11 34 -15 54 -6 33 -4 37 16 41 13 2
25 5 28 6 3 0 5 -47 6 -106z m7994 72 c0 -33 2 -35 33 -35 42 0 44 -2 39 -44
-4 -31 -8 -35 -36 -38 -30 -3 -31 -5 -34 -53 -2 -27 -1 -65 3 -82 5 -28 10
-33 35 -33 22 0 33 -7 44 -29 14 -26 14 -30 0 -41 -8 -7 -37 -15 -64 -18 -93
-9 -130 42 -130 178 0 73 -2 80 -20 80 -16 0 -20 7 -20 36 0 27 5 37 20 41 14
4 20 14 20 33 0 33 9 38 68 39 42 1 42 1 42 -34z m930 -21 c14 -41 5 -54 -38
-54 l-23 0 20 -26 c58 -74 -5 -164 -114 -164 -33 0 -45 -4 -43 -12 3 -8 32
-15 77 -19 60 -4 76 -10 98 -32 51 -50 30 -122 -44 -153 -45 -19 -167 -18
-208 2 -28 13 -55 53 -55 80 0 2 22 4 49 4 32 0 53 -5 61 -15 9 -11 27 -15 59
-13 39 3 46 6 49 26 3 20 0 22 -50 22 -101 0 -155 53 -115 114 14 20 13 24 -9
45 -18 17 -24 34 -24 66 0 79 62 124 170 125 25 0 63 9 85 19 22 11 41 20 42
20 1 1 7 -15 13 -35z m-10852 -26 c-2 -18 -7 -33 -13 -33 -5 0 -11 15 -13 33
-3 24 1 32 13 32 12 0 16 -8 13 -32z m3637 -8 c18 -19 20 -34 20 -163 l0 -142
-52 -3 -53 -3 0 121 c0 102 -2 122 -16 127 -9 3 -24 2 -33 -4 -13 -8 -17 -32
-19 -127 l-3 -117 -52 3 -52 3 0 160 0 160 40 3 c27 2 43 -1 51 -12 10 -14 15
-13 50 5 45 23 88 19 119 -11z m289 9 c29 -14 33 -34 11 -63 -13 -17 -19 -18
-54 -8 -41 13 -74 7 -68 -12 2 -6 31 -21 66 -34 63 -24 91 -55 91 -101 0 -91
-129 -141 -237 -91 -48 21 -53 38 -23 65 18 16 25 17 54 7 44 -16 83 -15 89 2
7 18 -6 28 -65 50 -112 41 -119 152 -13 192 43 15 106 12 149 -7z m3213 1
c121 -54 121 -253 1 -316 -39 -20 -117 -18 -155 6 -118 72 -98 282 30 319 49
14 78 12 124 -9z m341 12 c8 -6 10 -22 6 -55 -5 -38 -11 -47 -26 -47 -56 0
-78 -45 -78 -156 l0 -74 -55 0 -55 0 2 163 3 162 43 3 c37 3 44 0 49 -17 6
-25 16 -26 34 -5 11 14 43 32 59 33 3 0 11 -3 18 -7z m434 -19 c35 -32 50 -73
50 -142 1 -80 -19 -130 -61 -161 -32 -22 -80 -24 -123 -6 -15 7 -17 -1 -20
-61 l-3 -68 -53 -3 -52 -3 2 228 3 228 41 3 c27 2 45 -2 53 -12 11 -13 16 -12
44 5 37 23 88 20 119 -8z m312 -22 c-9 -55 -12 -61 -33 -61 -10 0 -29 -9 -42
-19 -21 -17 -25 -30 -29 -113 l-5 -93 -52 -3 -53 -3 0 165 0 166 46 0 c37 0
47 -4 51 -20 6 -21 23 -28 23 -10 0 15 59 38 82 32 15 -4 17 -11 12 -41z m236
27 c65 -33 92 -84 87 -165 -5 -100 -67 -163 -159 -163 -116 0 -186 96 -158
217 25 111 129 161 230 111z m369 -6 c46 -34 65 -69 69 -131 3 -47 0 -69 -17
-104 -52 -107 -212 -118 -278 -18 -27 40 -32 145 -9 189 19 37 58 71 92 82 40
13 114 3 143 -18z m355 7 l26 -21 43 21 c56 27 69 26 106 -5 l31 -26 0 -144 0
-145 -52 3 -53 3 -3 123 c-2 113 -4 122 -22 122 -31 0 -40 -32 -40 -145 l0
-106 -52 3 -53 3 -3 123 c-2 113 -4 122 -22 122 -31 0 -40 -32 -40 -145 l0
-106 -52 3 -53 3 0 160 0 160 40 3 c27 2 43 -1 51 -12 10 -14 15 -13 50 4 48
25 65 25 98 -1z m521 -3 c34 -23 55 -77 55 -145 0 -75 -17 -118 -59 -154 -34
-28 -103 -38 -116 -17 -16 25 -25 5 -25 -54 0 -71 -4 -76 -71 -76 l-39 0 0
230 0 230 45 0 c29 0 48 -5 51 -14 4 -11 12 -10 42 6 40 20 80 18 117 -6z
m770 -6 c18 -19 20 -34 20 -163 l0 -142 -52 -3 -53 -3 0 121 c0 102 -2 122
-16 127 -9 3 -24 2 -33 -4 -13 -8 -17 -32 -19 -127 l-3 -116 -55 0 -54 0 2
163 3 162 40 3 c27 2 43 -1 51 -12 10 -14 15 -13 50 5 45 23 88 19 119 -11z
m-7471 -77 c5 -51 12 -93 16 -93 4 0 13 33 20 73 20 113 22 117 74 117 25 0
47 -4 50 -9 3 -4 10 -41 16 -82 19 -128 32 -130 45 -5 4 38 9 75 12 83 7 18
103 18 103 0 0 -24 -51 -271 -60 -294 -8 -20 -17 -23 -69 -23 -68 0 -63 -6
-81 108 -7 40 -15 70 -19 67 -3 -3 -13 -43 -21 -88 l-15 -82 -62 -3 c-58 -3
-63 -1 -68 20 -24 95 -61 298 -57 303 4 3 29 5 57 3 l50 -3 9 -92z m7144 -70
l2 -163 -55 0 -55 0 0 166 0 165 53 -3 52 -3 3 -162z m-8058 -10 c0 -10 -4
-14 -8 -8 -4 6 -11 13 -16 18 -5 4 -2 7 7 7 10 0 17 -8 17 -17z m-2092 -110
c-4 -38 -28 -42 -28 -5 0 17 3 38 6 47 6 16 8 16 16 1 5 -9 8 -28 6 -43z
m2012 -42 c0 -22 -16 -36 -24 -22 -8 12 3 41 15 41 5 0 9 -9 9 -19z m-2032
-48 c-4 -34 -28 -43 -28 -10 0 25 7 37 22 37 5 0 8 -12 6 -27z m2037 -72 c-3
-7 11 -31 30 -52 l35 -39 0 -113 c0 -98 3 -116 22 -147 43 -69 48 -83 48 -149
0 -36 9 -97 20 -136 11 -38 20 -104 20 -145 2 -151 19 -194 80 -206 39 -8 46
-20 20 -34 -11 -6 -20 -18 -20 -26 0 -9 -9 -27 -20 -41 -11 -14 -20 -34 -20
-43 0 -14 -29 -38 -34 -28 -21 41 -27 56 -25 64 3 15 -13 74 -22 80 -18 11 -9
77 12 100 21 23 19 44 -5 44 -7 0 -18 -10 -24 -22 l-11 -23 0 23 c-1 12 4 22
9 22 6 0 10 7 10 16 0 13 -3 14 -14 5 -22 -18 -27 0 -25 85 1 64 -1 78 -16 86
-39 22 -52 44 -48 84 9 113 14 129 46 148 20 12 27 20 19 23 -7 3 -22 -3 -33
-13 -20 -18 -33 -13 -35 14 -1 10 -2 30 -3 45 0 16 -5 26 -11 22 -6 -4 -8 -10
-5 -15 3 -5 1 -11 -5 -15 -6 -4 -10 7 -10 25 0 24 4 31 14 27 18 -7 23 7 21
63 -3 62 -13 82 -36 75 -17 -6 -19 -1 -19 37 0 24 5 49 11 55 7 7 9 28 5 55
-4 23 -9 61 -12 83 l-5 40 20 -30 c12 -16 19 -36 16 -44z m-2059 -128 c-3 -8
-10 -11 -16 -8 -14 9 -12 72 3 98 11 20 12 18 15 -27 2 -27 1 -55 -2 -63z
m2024 41 c0 -8 -4 -12 -10 -9 -5 3 -10 10 -10 16 0 5 5 9 10 9 6 0 10 -7 10
-16z m-2037 -155 c-8 -28 -21 -32 -28 -9 -8 25 14 58 25 39 4 -6 5 -20 3 -30z
m2075 -19 c-1 -43 -18 -37 -18 6 0 19 4 33 9 29 5 -3 9 -19 9 -35z m-2130
-125 c-13 -12 -27 -29 -31 -38 -6 -17 -27 -24 -27 -9 0 4 9 18 20 32 11 14 20
30 20 35 0 6 8 22 18 35 l17 25 3 -30 c3 -21 -3 -35 -20 -50z m-48 -92 c0 -10
-4 -25 -10 -33 -8 -12 -10 -12 -16 3 -7 20 1 47 16 47 5 0 10 -8 10 -17z m-20
-65 c0 -7 -4 -19 -9 -27 -11 -17 -25 3 -17 24 7 18 26 20 26 3z m-30 -122
c-12 -20 -24 -36 -26 -36 -11 0 10 77 25 94 16 18 16 18 19 -1 2 -11 -7 -37
-18 -57z m-38 -73 c-14 -24 -177 -183 -189 -183 -6 0 -18 9 -27 19 -17 19 -17
20 13 19 26 -1 45 13 118 85 84 84 106 99 85 60z m-268 -58 c29 -26 35 -55 11
-55 -23 0 -18 -31 11 -61 29 -30 25 -49 -11 -49 -13 0 -26 -4 -30 -9 -3 -6
-26 -13 -50 -17 -25 -3 -45 -10 -45 -15 0 -18 -44 -8 -77 17 -27 21 -37 23
-48 14 -20 -17 -19 -34 1 -26 10 4 14 1 11 -6 -2 -7 -13 -13 -24 -13 -12 0
-25 -3 -29 -7 -14 -14 -66 -8 -92 11 -32 22 -71 36 -94 32 -9 -1 -19 3 -23 9
-7 11 -65 14 -65 3 0 -12 88 -45 100 -38 6 4 18 4 27 0 14 -5 12 -8 -11 -20
-18 -9 -33 -11 -44 -6 -9 5 -32 15 -50 22 -43 15 -82 47 -82 65 0 8 11 19 24
25 19 9 39 6 97 -12 41 -12 91 -31 111 -41 84 -41 107 -13 53 66 -38 55 -42
96 -9 96 13 0 84 -66 143 -133 35 -41 55 -32 61 27 4 43 7 47 18 33 7 -9 27
-19 43 -22 16 -4 33 -14 39 -23 5 -9 9 -12 9 -7 0 18 -23 39 -63 60 -22 11
-41 25 -43 32 -7 21 53 65 98 72 3 1 18 -10 33 -24z m-370 -260 c-4 -10 0 -15
11 -15 23 0 13 -24 -12 -28 -18 -3 -21 3 -25 37 -3 35 -1 38 14 30 10 -5 15
-16 12 -24z m-6116 -142 l2 -163 75 0 75 0 0 -29 c0 -61 0 -61 -141 -61 l-129
0 0 210 0 211 58 -3 57 -3 3 -162z m1682 112 c0 -32 2 -35 30 -35 34 0 45 -17
36 -55 -5 -20 -13 -25 -37 -25 l-30 0 3 -82 3 -83 32 -3 c24 -2 34 -10 43 -33
17 -40 5 -51 -64 -57 -53 -4 -57 -3 -91 31 l-35 35 0 96 c0 89 -1 96 -20 96
-16 0 -20 7 -20 36 0 27 5 37 20 41 14 4 20 14 20 33 0 33 9 38 68 39 42 1 42
1 42 -34z m2865 0 c1 -27 5 -31 35 -35 25 -4 35 -10 34 -22 -2 -54 -4 -57 -36
-60 -33 -3 -33 -3 -36 -65 -3 -73 9 -103 43 -103 17 0 29 -9 40 -31 9 -17 15
-32 13 -34 -18 -15 -55 -25 -92 -25 -84 0 -115 53 -116 193 0 60 -2 67 -20 67
-16 0 -20 7 -20 36 0 27 5 37 20 41 12 3 20 14 20 27 0 34 20 47 70 44 43 -3
45 -5 45 -33z m4745 1 c0 -3 -4 -8 -10 -11 -5 -3 -10 -1 -10 4 0 6 5 11 10 11
6 0 10 -2 10 -4z m-8891 -54 c43 -32 62 -66 68 -125 l6 -57 -97 0 c-86 0 -96
-2 -96 -18 0 -40 51 -55 106 -30 23 11 28 10 46 -11 10 -13 17 -29 15 -35 -6
-21 -72 -46 -122 -46 -109 0 -170 72 -162 189 6 76 25 107 88 139 50 26 107
24 148 -6z m286 18 c22 -5 50 -21 63 -35 19 -22 22 -38 22 -107 0 -45 5 -95
11 -112 13 -36 -2 -86 -24 -86 -8 0 -26 9 -41 21 l-26 20 -26 -20 c-33 -26
-100 -28 -133 -5 -30 21 -51 71 -44 106 8 44 55 80 110 85 72 7 76 9 62 34
-10 19 -17 21 -69 16 -58 -5 -59 -5 -70 26 -13 38 -6 45 51 56 60 12 68 12
114 1z m630 -4 c46 -20 57 -61 53 -206 l-3 -115 -52 -3 -53 -3 0 121 c0 102
-2 122 -16 127 -9 3 -24 2 -33 -4 -13 -8 -17 -32 -19 -127 l-3 -116 -55 0 -54
0 2 163 3 162 40 3 c27 2 43 -1 51 -12 10 -14 15 -13 50 4 46 24 46 24 89 6z
m705 -15 c48 -35 70 -79 70 -143 0 -111 -50 -169 -149 -176 -74 -4 -118 19
-148 78 -37 72 -22 185 30 229 52 42 148 48 197 12z m511 6 c46 -29 71 -137
49 -216 -7 -26 -26 -59 -46 -79 -30 -30 -39 -34 -77 -30 -23 3 -49 6 -57 9
-12 3 -16 -9 -20 -61 l-5 -65 -53 -3 -52 -3 2 228 3 228 41 3 c26 2 45 -2 53
-11 10 -13 17 -12 49 4 38 20 77 18 113 -4z m563 -5 c48 -28 69 -66 74 -131 8
-115 -57 -191 -165 -191 -94 0 -156 68 -156 169 0 61 17 102 56 140 46 43 130
48 191 13z m311 17 c77 -21 115 -77 115 -166 0 -113 -65 -177 -173 -170 -98 6
-147 63 -147 170 0 87 32 136 107 163 47 16 49 16 98 3z m382 0 c15 -5 31 -15
34 -21 5 -7 22 -3 53 11 50 25 77 22 114 -12 21 -19 22 -28 22 -164 l0 -144
-52 3 -53 3 -3 123 c-2 113 -4 122 -22 122 -25 0 -29 -20 -33 -145 l-2 -100
-55 0 -55 0 -3 123 c-2 110 -4 122 -21 122 -29 0 -41 -44 -41 -151 l0 -100
-52 3 -53 3 0 160 0 160 41 3 c26 2 45 -2 53 -11 10 -13 17 -12 48 4 43 22 43
22 80 8z m541 -15 c80 -52 66 -266 -20 -310 -30 -15 -74 -15 -110 0 -15 7 -17
-1 -20 -61 l-3 -68 -53 -3 -52 -3 2 228 3 228 43 3 c30 2 44 -1 48 -12 5 -13
11 -12 42 5 40 22 79 20 120 -7z m1788 15 c3 -6 1 -16 -5 -22 -6 -6 -11 -35
-11 -64 0 -55 -15 -71 -26 -28 -6 26 15 125 27 125 4 0 11 -5 15 -11z m-5186
-19 c11 -20 11 -20 39 1 17 13 39 19 57 17 24 -2 29 -7 26 -28 -6 -56 -13 -70
-33 -70 -56 0 -79 -46 -79 -163 l0 -68 -52 3 -53 3 -3 150 c-1 82 0 155 2 162
3 8 22 13 45 13 30 0 43 -5 51 -20z m1797 0 c3 -11 9 -20 13 -20 4 0 15 9 25
20 11 12 31 20 52 20 l33 0 -6 -42 c-8 -51 -7 -50 -47 -63 -44 -14 -57 -46
-57 -142 l0 -83 -55 0 -55 0 0 158 c0 87 3 162 7 165 3 4 24 7 46 7 30 0 40
-4 44 -20z m3633 -16 c0 -8 -4 -12 -10 -9 -5 3 -10 10 -10 16 0 5 5 9 10 9 6
0 10 -7 10 -16z m2898 -56 c7 -35 14 -72 16 -83 1 -11 15 -46 29 -78 15 -32
27 -61 27 -65 0 -4 13 -27 30 -52 18 -27 27 -52 24 -65 -3 -14 2 -23 18 -30
13 -6 24 -20 26 -35 2 -14 14 -48 28 -76 13 -28 24 -60 24 -72 0 -11 5 -24 10
-27 13 -8 13 -428 0 -469 -5 -17 -12 -44 -15 -59 -3 -15 -10 -25 -15 -22 -13
8 -13 52 0 60 12 8 14 478 1 503 -30 61 -51 115 -46 122 3 5 -10 31 -28 57
-44 62 -64 101 -87 173 -10 32 -23 66 -28 76 -30 60 -52 116 -47 124 3 5 0 18
-7 29 -9 15 -9 23 1 35 21 26 27 20 39 -46z m-2339 -71 c11 -14 6 -27 -10 -27
-5 0 -13 9 -19 20 -8 16 -8 20 3 20 8 0 20 -6 26 -13z m4279 -13 c26 -18 30
-65 6 -88 -36 -37 -104 -7 -104 45 0 29 31 59 60 59 9 0 26 -7 38 -16z m-5018
-39 c20 -24 6 -28 -15 -5 -10 11 -13 20 -8 20 6 0 16 -7 23 -15z m4850 -170
c0 -153 3 -187 15 -191 17 -7 39 -69 30 -84 -3 -5 -27 -10 -51 -10 -37 0 -51
6 -75 29 l-29 29 0 201 c0 224 -7 206 78 210 l32 1 0 -185z m2078 -3 c2 -168
4 -184 23 -203 30 -30 22 -73 -15 -77 -40 -5 -73 5 -96 28 -19 19 -20 34 -20
224 0 227 -4 216 70 213 l35 -2 3 -183z m182 -2 c0 -160 2 -190 15 -190 15 0
31 -61 20 -79 -8 -15 -71 -14 -98 1 -44 23 -46 34 -47 245 0 226 -7 208 78
212 l32 1 0 -190z m-6291 104 c36 -53 38 -64 11 -64 -24 0 -73 48 -65 64 3 6
8 19 11 29 4 9 8 17 9 17 2 0 17 -20 34 -46z m3453 36 c77 -22 103 -106 50
-160 l-29 -28 23 -11 c38 -17 57 -56 51 -102 -11 -81 -65 -108 -219 -109
l-108 0 0 210 0 210 98 0 c53 0 114 -5 134 -10z m4284 -66 c17 -41 9 -54 -33
-54 -28 0 -29 -5 -3 -32 24 -26 25 -58 4 -99 -18 -36 -67 -59 -125 -59 -67 0
-42 -24 32 -31 96 -8 129 -33 129 -96 0 -68 -59 -103 -175 -103 -102 0 -155
29 -155 84 0 22 95 23 104 1 6 -17 81 -21 105 -6 31 20 3 39 -63 43 -51 3 -71
9 -91 28 -29 27 -31 47 -9 78 15 22 15 25 -5 46 -46 49 -32 133 28 169 16 9
65 21 110 26 45 5 91 16 104 24 12 9 23 16 25 16 2 1 10 -15 18 -35z m-7657
-7 c12 -15 5 -27 -16 -27 -7 0 -13 9 -13 20 0 23 13 26 29 7z m3735 -25 c40
-23 66 -77 66 -134 l0 -48 -95 0 c-100 0 -115 -8 -79 -44 18 -19 49 -20 93 -5
28 10 33 8 51 -12 27 -33 26 -37 -22 -59 -84 -38 -181 -18 -224 47 -42 63 -38
168 9 227 44 54 134 66 201 28z m685 -1 c44 -31 64 -68 69 -126 l4 -55 -101 0
c-61 0 -101 -4 -101 -10 0 -19 40 -50 65 -50 13 0 36 5 51 12 23 11 28 10 45
-11 26 -32 24 -38 -21 -61 -86 -44 -196 -14 -231 63 -34 75 -20 177 29 220 51
46 140 54 191 18z m634 3 c42 -22 67 -70 67 -131 l0 -53 -95 0 c-100 0 -111
-6 -78 -42 19 -21 60 -23 98 -6 24 11 29 9 46 -12 10 -14 19 -28 19 -32 0 -4
-19 -17 -42 -29 -85 -43 -202 -10 -234 67 -18 43 -18 137 0 172 43 83 133 110
219 66z m330 0 c32 -17 32 -21 9 -52 -17 -22 -21 -23 -61 -12 -32 8 -46 8 -57
-1 -20 -16 -12 -23 55 -48 69 -25 91 -50 91 -101 0 -67 -57 -110 -146 -110
-45 0 -134 33 -134 49 0 4 11 18 25 31 22 20 27 21 54 11 38 -16 85 -11 89 10
2 11 -14 22 -58 38 -96 35 -126 107 -69 167 40 43 136 51 202 18z m429 5 c36
-19 48 -51 48 -133 0 -44 5 -93 11 -110 13 -36 -2 -86 -24 -86 -8 0 -26 9 -41
21 l-26 20 -26 -20 c-41 -33 -108 -29 -145 8 -23 24 -29 38 -29 73 0 64 39
100 115 106 60 5 69 11 58 37 -5 15 -16 17 -69 12 -63 -5 -63 -5 -74 26 -13
38 -8 43 55 55 52 11 118 6 147 -9z m866 -5 c34 -22 52 -74 52 -146 -1 -137
-80 -208 -182 -164 -15 7 -17 -1 -20 -61 l-3 -68 -53 -3 -52 -3 2 228 3 228
40 3 c27 2 43 -1 51 -12 10 -14 15 -13 50 5 41 21 71 19 112 -7z m567 -3 c46
-26 70 -76 70 -146 0 -106 -53 -166 -152 -173 -48 -3 -64 0 -92 20 -51 35 -71
68 -78 129 -12 123 72 209 187 193 19 -3 48 -13 65 -23z m861 18 c70 -18 84
-44 84 -155 0 -54 4 -96 11 -99 11 -7 3 -63 -11 -78 -10 -11 -45 -1 -64 19
-13 13 -19 12 -48 -6 -81 -49 -168 -5 -168 84 0 69 46 106 131 106 36 0 40 2
37 23 -3 20 -8 22 -65 21 -61 -1 -62 0 -73 29 -13 38 -6 45 51 56 62 12 65 12
115 0z m396 -16 c15 -14 22 -13 62 6 52 26 87 21 116 -16 18 -23 20 -41 20
-165 l0 -139 -52 3 -53 3 -3 123 c-2 112 -4 122 -22 122 -28 0 -31 -11 -32
-123 0 -57 -3 -109 -7 -116 -5 -8 -26 -11 -57 -9 l-49 3 -3 123 c-2 113 -4
122 -22 122 -31 0 -40 -32 -40 -145 l0 -106 -52 3 -53 3 0 160 0 160 38 3 c26
2 45 -2 57 -13 12 -11 20 -13 24 -6 10 15 67 30 91 24 11 -3 28 -12 37 -20z
m497 6 c29 -17 36 -18 55 -6 35 23 67 27 101 13 47 -20 56 -53 53 -196 l-3
-125 -52 -3 -53 -3 0 121 c0 98 -3 122 -15 126 -36 14 -45 -14 -45 -133 l0
-114 -52 3 -53 3 -3 118 c-2 93 -6 119 -17 124 -34 13 -44 -15 -47 -130 l-3
-112 -53 -3 -53 -3 3 163 3 163 40 3 c27 2 43 -1 51 -12 10 -14 15 -13 50 4
47 25 51 25 93 -1z m481 -2 c33 -16 66 -67 74 -116 11 -68 6 -71 -100 -71 -52
0 -94 -3 -94 -8 0 -4 7 -18 16 -30 17 -25 58 -29 99 -10 24 11 29 9 46 -12 10
-14 19 -28 19 -32 0 -4 -19 -17 -42 -29 -32 -16 -54 -20 -98 -17 -98 7 -150
65 -150 167 0 140 110 215 230 158z m568 -4 c37 -18 38 -20 14 -51 -17 -22
-22 -23 -59 -13 -43 12 -76 6 -70 -12 2 -6 30 -22 63 -34 32 -13 67 -32 77
-44 19 -24 23 -80 7 -110 -17 -30 -84 -59 -137 -59 -47 0 -133 31 -133 47 1 4
10 19 21 32 18 22 23 24 53 13 41 -15 83 -15 92 -1 9 15 -13 33 -68 53 -53 19
-88 56 -88 92 0 94 117 139 228 87z m-10818 -43 c0 -33 -4 -60 -10 -60 -6 0
-10 27 -10 60 0 33 4 60 10 60 6 0 10 -27 10 -60z m4898 52 c9 -7 12 -46 10
-163 l-3 -154 -49 -3 c-32 -2 -52 1 -57 10 -14 21 -11 292 3 306 14 14 76 16
96 4z m497 -94 c29 -138 29 -138 60 7 10 44 22 83 29 87 17 11 84 9 91 -2 4
-6 -15 -81 -41 -166 l-48 -155 -65 3 -65 3 -48 153 c-26 85 -45 158 -42 163 3
6 29 9 57 7 l52 -3 20 -97z m2239 96 c9 -3 16 -12 16 -20 0 -19 6 -18 30 6 11
11 33 20 50 20 27 0 30 -3 30 -29 0 -48 -16 -80 -37 -75 -38 10 -58 -30 -63
-129 l-5 -92 -52 -3 -53 -3 0 159 c0 87 3 162 7 165 8 9 56 9 77 1z m920 0 c9
-3 16 -15 16 -27 0 -18 2 -18 25 7 33 35 85 37 85 2 0 -41 -12 -86 -22 -80
-16 10 -55 -5 -64 -23 -4 -10 -10 -58 -14 -108 l-5 -90 -52 -3 -53 -3 0 159
c0 87 3 162 7 165 8 9 56 9 77 1z m1914 -22 l4 -23 24 26 c18 20 32 25 57 23
34 -3 34 -3 23 -69 -5 -31 -10 -36 -29 -32 -43 8 -61 -28 -67 -130 l-5 -92
-52 -3 -53 -3 0 159 c0 87 3 162 7 166 4 4 25 6 48 4 33 -2 41 -7 43 -26z
m-10512 -201 c-15 -15 -26 -39 -26 -53 0 -15 -4 -30 -10 -33 -5 -3 -10 -19
-10 -34 0 -16 -7 -34 -15 -41 -8 -7 -15 -22 -15 -33 0 -34 -39 -67 -80 -67
-43 0 -60 -14 -60 -53 0 -16 -4 -26 -10 -22 -5 3 -10 19 -10 35 0 32 24 53 72
64 45 10 107 107 108 168 0 9 14 40 30 68 17 28 30 57 30 64 0 29 15 26 18 -4
3 -24 -3 -39 -22 -59z m-3480 -26 c21 -32 7 -69 -31 -87 -22 -10 -30 -8 -53 9
-15 11 -28 30 -30 42 -9 57 82 85 114 36z m-1967 -16 c36 -13 36 -11 15 -50
-12 -25 -20 -30 -39 -25 -34 9 -55 -3 -55 -30 0 -21 5 -24 35 -24 38 0 42 -10
25 -54 -7 -19 -17 -26 -35 -26 l-25 0 0 -120 0 -120 -55 0 -55 0 0 119 c0 116
-1 120 -22 123 -18 2 -24 10 -26 40 -3 32 0 37 20 40 18 2 24 11 29 40 7 44
24 67 64 84 37 16 82 17 124 3z m431 -179 c0 -126 4 -190 11 -190 13 0 42 -68
34 -80 -4 -6 -26 -10 -50 -10 -99 0 -105 15 -105 264 l0 195 38 4 c20 2 45 4
55 5 16 2 17 -13 17 -188z m180 6 c0 -173 1 -186 20 -199 11 -8 21 -27 22 -48
3 -34 3 -34 -41 -37 -56 -4 -87 12 -101 51 -5 17 -10 113 -10 218 l0 188 38 4
c20 2 45 4 55 5 16 2 17 -13 17 -182z m320 108 c0 -75 0 -76 23 -69 12 4 41
10 64 12 37 4 46 1 72 -24 70 -70 66 -220 -7 -284 -31 -28 -39 -30 -81 -25
-25 3 -75 7 -111 9 l-65 2 0 220 0 220 35 6 c74 13 70 17 70 -67z m691 64 c0
-7 2 -38 3 -68 4 -85 3 -83 28 -66 34 24 92 20 125 -8 l28 -24 0 -139 0 -138
-55 0 -55 0 -3 118 c-2 98 -5 119 -19 124 -10 4 -23 -2 -35 -16 -15 -19 -18
-41 -18 -127 l0 -104 -55 0 -55 0 2 223 3 222 35 6 c57 10 70 10 71 -3z m1025
2 l24 0 0 -225 0 -225 -50 0 c-28 0 -50 5 -50 10 0 6 -13 4 -30 -5 -63 -32
-136 -10 -164 50 -24 49 -24 151 0 200 26 55 67 77 132 71 l52 -5 0 71 0 71
31 -7 c17 -3 42 -6 55 -6z m-3360 -136 c87 -41 110 -196 40 -272 -32 -36 -70
-52 -121 -52 -90 0 -145 48 -160 136 -7 48 9 120 33 148 49 55 139 73 208 40z
m338 -31 c-8 -61 -10 -63 -44 -63 -43 0 -60 -40 -60 -140 l0 -80 -55 0 -55 0
0 160 0 160 50 0 c44 0 50 -2 50 -21 0 -20 1 -20 31 5 18 15 43 26 60 26 l30
0 -7 -47z m617 9 c28 -31 29 -37 29 -125 0 -51 5 -98 10 -103 7 -7 7 -21 -1
-42 -13 -37 -35 -41 -70 -13 -22 18 -24 18 -53 0 -18 -11 -50 -19 -74 -19
-115 0 -143 151 -36 196 18 8 52 14 74 14 27 0 40 4 40 14 0 28 -29 39 -84 32
l-54 -6 -7 31 c-11 49 10 59 124 56 69 -2 75 -4 102 -35z m1142 29 c40 -16 75
-61 86 -113 17 -75 13 -78 -95 -78 -85 0 -94 -2 -94 -19 0 -39 53 -51 125 -27
15 5 24 0 38 -23 l18 -30 -40 -21 c-48 -24 -129 -27 -170 -5 -72 37 -105 123
-81 209 11 42 57 97 90 109 25 9 97 8 123 -2z m911 -22 c25 -30 26 -35 26
-165 l0 -134 -55 0 -55 0 0 109 c0 117 -4 141 -25 141 -36 0 -45 -29 -45 -141
l0 -109 -55 0 -55 0 0 160 0 160 43 0 c24 0 48 -5 54 -11 8 -8 17 -7 34 5 13
9 42 16 65 16 35 0 47 -5 68 -31z m-324 -139 l0 -160 -55 0 -55 0 0 160 0 160
55 0 55 0 0 -160z m10098 -33 c12 -24 11 -31 -2 -53 -30 -44 -116 -23 -116 29
0 60 92 78 118 24z m-6770 -59 c3 -48 0 -59 -17 -70 -19 -11 -20 -20 -14 -130
3 -64 2 -148 -2 -185 -6 -61 -8 -66 -21 -48 -10 14 -14 56 -14 166 0 132 2
152 21 183 23 39 28 98 10 120 -13 15 -3 28 19 24 11 -2 16 -18 18 -60z m4560
-16 c3 -65 5 -73 20 -66 37 16 100 16 125 -1 55 -36 75 -169 38 -252 -30 -66
-101 -91 -163 -59 -16 9 -30 11 -33 5 -4 -5 -26 -9 -51 -9 l-44 0 0 224 0 225
33 4 c72 9 72 9 75 -71z m992 -106 c0 -173 1 -186 20 -199 11 -8 21 -27 22
-48 3 -34 3 -34 -43 -37 -38 -2 -52 2 -75 22 l-29 24 0 204 0 203 35 6 c76 14
70 29 70 -175z m3788 101 c3 -77 3 -78 25 -62 35 25 99 19 128 -11 23 -24 24
-33 27 -165 l4 -139 -56 0 -56 0 0 109 c0 122 -4 141 -30 141 -32 0 -39 -25
-42 -136 l-3 -109 -52 -3 -53 -3 0 225 0 225 33 4 c72 9 72 10 75 -76z m-1792
28 l35 -15 -17 -30 c-16 -26 -22 -29 -50 -24 -46 8 -70 -2 -84 -37 -7 -16 -11
-31 -9 -34 2 -2 22 1 44 7 87 23 151 -44 143 -148 -7 -83 -65 -134 -150 -134
-99 0 -158 71 -158 190 0 88 15 134 57 181 51 56 121 73 189 44z m-1464 -42
c3 -35 6 -38 36 -41 26 -3 32 -8 32 -27 0 -41 -11 -55 -41 -55 l-29 0 0 -74
c0 -77 6 -90 45 -91 25 0 54 -50 38 -66 -17 -17 -99 -23 -132 -9 -43 17 -61
64 -61 158 0 71 -2 80 -20 85 -15 4 -20 14 -20 41 0 29 4 36 20 36 16 0 20 7
20 34 0 37 8 42 77 45 30 1 32 -1 35 -36z m3030 0 c3 -35 6 -38 36 -41 27 -3
32 -7 32 -31 0 -33 -16 -51 -47 -51 -22 0 -23 -3 -23 -74 0 -79 7 -93 46 -88
15 2 25 -5 34 -28 16 -40 6 -51 -54 -57 -100 -12 -136 32 -136 166 0 70 -2 79
-20 84 -15 4 -20 14 -20 41 0 29 4 36 20 36 16 0 20 7 20 34 0 37 8 42 77 45
30 1 32 -1 35 -36z m-4794 -47 c60 -31 77 -61 80 -144 3 -68 1 -81 -20 -112
-62 -93 -213 -94 -270 -1 -18 28 -23 51 -23 101 0 110 55 169 158 170 26 0 60
-6 75 -14z m700 -6 l33 -20 -21 -30 c-17 -24 -25 -28 -40 -20 -10 6 -35 10
-54 10 -58 0 -43 -27 27 -50 62 -19 97 -56 97 -99 0 -68 -57 -111 -147 -111
-48 0 -133 31 -133 48 0 5 11 19 24 31 20 19 28 21 45 11 12 -6 39 -10 59 -8
54 4 48 29 -13 50 -114 42 -140 135 -52 188 44 27 131 27 175 0z m312 -3 c51
-34 73 -79 73 -148 -1 -103 -53 -160 -150 -166 -76 -5 -120 18 -150 77 -45 86
-17 203 57 242 50 26 128 24 170 -5z m517 3 c45 -27 63 -60 70 -124 l6 -56
-96 0 c-53 0 -98 -4 -101 -8 -3 -5 2 -18 10 -30 17 -25 71 -30 106 -11 18 10
25 8 40 -11 24 -30 20 -41 -23 -62 -46 -24 -120 -23 -170 3 -100 51 -105 239
-7 299 44 26 122 27 165 0z m564 -3 c41 -27 58 -60 66 -127 l6 -50 -102 0
c-55 0 -101 -3 -101 -8 0 -4 7 -18 16 -30 17 -25 70 -30 106 -11 18 10 25 8
40 -11 24 -30 20 -41 -23 -62 -46 -24 -120 -23 -170 3 -100 51 -105 239 -7
299 47 28 124 27 169 -3z m680 -3 c23 -24 24 -33 27 -165 l4 -139 -56 0 -56 0
0 109 c0 122 -4 141 -30 141 -32 0 -39 -25 -42 -136 l-3 -109 -52 -3 -53 -3 0
160 0 161 43 0 c24 0 48 -5 54 -11 8 -8 17 -7 34 5 37 26 101 21 130 -10z
m950 7 c23 -19 24 -19 48 0 13 10 38 19 57 19 81 0 94 -28 94 -200 l0 -130
-55 0 -55 0 0 120 c0 98 -3 122 -15 126 -36 14 -45 -14 -45 -132 l0 -114 -55
0 -55 0 0 120 c0 103 -2 122 -16 127 -33 12 -44 -24 -44 -139 l0 -108 -55 0
-55 0 0 160 0 160 49 0 c29 0 51 -5 53 -12 3 -8 11 -7 28 5 33 23 92 22 121
-2z m487 -1 c50 -31 72 -75 72 -145 0 -104 -48 -164 -138 -173 -108 -10 -173
44 -180 150 -9 115 52 188 158 188 37 0 65 -6 88 -20z m379 -2 c22 -21 23 -28
23 -165 l0 -143 -50 0 -50 0 0 109 c0 121 -4 141 -29 141 -35 0 -41 -21 -41
-137 l0 -113 -55 0 -55 0 0 160 0 160 45 0 c31 0 47 -5 51 -15 5 -13 10 -12
31 5 35 28 100 27 130 -2z m868 8 c39 -17 42 -26 19 -61 -13 -20 -20 -22 -40
-14 -14 5 -39 9 -55 9 -39 0 -38 -24 1 -39 17 -6 44 -16 60 -22 39 -15 70 -54
70 -90 0 -37 -42 -85 -87 -100 -44 -14 -136 -6 -169 16 -29 19 -30 26 -6 55
17 21 20 22 61 7 51 -17 81 -12 81 13 0 12 -18 24 -60 39 -33 12 -66 32 -75
44 -18 26 -19 86 -1 109 35 46 132 62 201 34z m-3005 -156 l0 -160 -55 0 -55
0 0 160 0 160 55 0 55 0 0 -160z m-3450 -72 c-28 -73 -35 -88 -42 -88 -5 0 -8
-9 -8 -19 0 -11 -4 -23 -10 -26 -21 -13 -5 35 43 132 24 49 36 49 17 1z
m-3340 -189 c0 -23 -16 -25 -24 -3 -10 25 -7 34 9 28 8 -4 15 -15 15 -25z
m3212 -43 c-43 -47 -65 -84 -76 -128 -8 -35 -26 -37 -26 -3 0 14 5 25 10 25 6
0 10 10 10 22 0 14 22 45 57 80 66 66 86 70 25 4z m-3192 -15 c0 -6 -4 -13
-10 -16 -5 -3 -10 1 -10 9 0 9 5 16 10 16 6 0 10 -4 10 -9z m20 -76 c0 -13 -4
-27 -10 -30 -6 -4 -10 8 -10 30 0 22 4 34 10 30 6 -3 10 -17 10 -30z m24 -91
c5 -16 13 -38 18 -50 5 -11 9 -27 7 -35 -3 -18 5 -39 47 -125 45 -95 44 -120
-4 -95 -30 15 -72 22 -72 11 0 -5 7 -10 15 -10 8 0 15 -4 15 -10 0 -5 9 -10
21 -10 30 0 90 -31 86 -44 -3 -6 2 -18 10 -27 12 -14 12 -17 -1 -22 -9 -4 -18
-2 -21 3 -4 6 -16 10 -28 10 -13 0 -33 7 -45 16 -29 20 -29 8 1 -17 12 -10 34
-18 49 -19 15 0 30 -4 33 -10 3 -5 15 -10 26 -10 10 0 19 -6 19 -14 0 -18 -6
-22 -47 -31 -26 -5 -33 -3 -33 8 0 9 -16 25 -36 38 -25 15 -44 39 -61 75 -38
83 -38 100 -3 125 37 28 40 68 10 148 -11 30 -18 57 -15 59 2 3 -2 17 -10 33
-18 34 -19 42 -2 37 6 -3 16 -18 21 -34z m3046 -25 c0 -6 -5 -20 -11 -31 -9
-16 -13 -18 -19 -7 -5 7 -4 21 1 31 11 20 29 24 29 7z m-20 -71 c0 -19 -18
-43 -25 -36 -9 9 4 48 16 48 5 0 9 -6 9 -12z m-49 -141 c-8 -8 -11 -7 -11 4 0
20 13 34 18 19 3 -7 -1 -17 -7 -23z m-19 -59 c-7 -7 -12 -8 -12 -2 0 14 12 26
19 19 2 -3 -1 -11 -7 -17z m-16 -75 c-11 -11 -19 6 -11 24 8 17 8 17 12 0 3
-10 2 -21 -1 -24z m-6 -32 c0 -12 -20 -25 -27 -18 -7 7 6 27 18 27 5 0 9 -4 9
-9z m-2736 -110 c24 -27 11 -48 -15 -25 -19 17 -26 44 -11 44 5 0 17 -9 26
-19z m2653 -50 c-2 -10 0 -26 5 -35 6 -10 5 -16 -2 -16 -6 0 -16 12 -22 26
-10 21 -9 27 3 35 20 12 22 11 16 -10z m30 -104 c4 -7 24 -19 43 -27 90 -36
265 -166 378 -283 41 -42 95 -88 120 -103 55 -31 82 -53 82 -66 0 -8 -43 12
-79 37 -8 6 -69 63 -136 128 -66 64 -126 117 -131 117 -6 0 -21 11 -34 25 -13
14 -30 25 -37 25 -8 0 -16 7 -19 15 -4 8 -12 15 -19 15 -7 0 -18 7 -25 15 -16
19 -92 55 -116 55 -17 0 -54 36 -54 52 0 13 18 10 27 -5z m-2443 -83 c9 -8 14
-20 11 -25 -10 -15 -19 -10 -32 16 -13 28 -2 33 21 9z m-4 -85 c0 -5 -7 -9
-15 -9 -15 0 -20 12 -9 23 8 8 24 -1 24 -14z m-2820 -29 c38 -38 15 -90 -40
-90 -39 0 -65 37 -51 73 9 23 25 33 59 36 6 0 21 -8 32 -19z m-3236 -42 c-8
-37 -8 -51 2 -91 8 -34 -10 -57 -45 -57 -57 0 -65 41 -24 125 22 44 32 55 51
55 22 0 23 -3 16 -32z m121 0 c-8 -37 -8 -50 0 -94 8 -37 -12 -57 -52 -52 -45
5 -51 42 -18 116 23 52 32 62 53 62 23 0 24 -3 17 -32z m4449 16 c22 -21 20
-43 -10 -108 -21 -46 -30 -56 -51 -56 -23 0 -24 2 -17 33 8 36 8 50 -1 88 -12
47 44 78 79 43z m120 0 c22 -22 20 -50 -9 -111 -20 -44 -29 -53 -50 -53 -28 0
-29 2 -16 47 6 22 6 43 -2 62 -9 25 -8 33 8 50 22 25 48 27 69 5z m1338 -46
c-9 -9 -12 -7 -12 12 0 19 3 21 12 12 9 -9 9 -15 0 -24z m-7155 -2 c45 -23 66
-59 66 -112 0 -77 -63 -134 -150 -134 l-42 0 -3 -62 -3 -63 -50 0 -50 0 -3
185 c-1 101 0 191 3 199 8 20 188 11 232 -13z m1540 0 c45 -23 66 -68 61 -128
-8 -75 -61 -118 -147 -118 l-40 0 -3 -62 -3 -63 -50 0 -50 0 -3 185 c-1 101 0
191 3 199 8 20 188 11 232 -13z m2047 16 c3 -5 2 -22 -3 -38 -7 -27 -11 -29
-72 -34 l-64 -5 0 -35 0 -35 58 -3 57 -3 0 -34 c0 -35 0 -35 -47 -35 -63 0
-75 -9 -71 -51 l3 -34 70 -5 70 -5 0 -35 0 -35 -120 0 -120 0 -3 185 c-1 101
0 190 2 197 6 15 231 19 240 5z m-3064 -47 c0 -32 2 -35 30 -35 34 0 45 -17
36 -55 -5 -20 -13 -25 -36 -25 l-30 0 0 -63 c0 -69 16 -104 43 -94 11 4 21 -1
28 -15 11 -20 11 -20 36 4 24 25 25 25 69 9 40 -14 45 -14 60 1 22 22 11 35
-38 49 -23 6 -54 23 -70 39 -94 94 60 201 190 131 26 -14 26 -15 7 -45 -14
-21 -19 -22 -54 -13 -44 12 -81 3 -63 -15 6 -6 35 -20 64 -32 67 -26 94 -71
75 -119 -21 -51 -58 -71 -129 -71 -40 0 -75 7 -95 18 -18 9 -33 12 -33 7 0
-20 -81 -34 -123 -21 -50 15 -67 54 -67 154 0 65 -2 74 -20 79 -15 4 -20 14
-20 37 0 23 5 33 20 37 14 4 20 14 20 34 0 23 5 28 28 32 69 10 72 9 72 -28z
m2580 1 c0 -30 3 -35 28 -38 24 -3 27 -7 27 -38 0 -31 -3 -35 -28 -38 l-28 -3
3 -77 c3 -73 4 -77 26 -77 24 0 52 -28 52 -52 0 -18 -74 -35 -112 -25 -52 13
-71 49 -76 147 -3 63 -8 85 -18 85 -8 0 -17 12 -20 26 -5 20 -2 31 14 43 11 9
22 27 24 41 3 25 27 36 86 39 19 1 22 -4 22 -33z m1131 -23 c8 -22 7 -30 -7
-40 -10 -7 -27 -13 -38 -13 -19 0 -19 -1 2 -20 49 -46 6 -147 -65 -152 -26 -2
-55 -4 -78 -7 -5 -1 -1 -8 9 -16 12 -9 41 -15 71 -15 85 0 128 -49 101 -115
-17 -40 -54 -61 -122 -70 -87 -12 -174 26 -174 75 0 17 7 20 39 20 22 0 44 -6
51 -15 13 -15 65 -20 94 -9 9 3 16 14 16 24 0 23 -19 30 -79 30 -26 0 -56 7
-69 16 -26 18 -30 65 -7 84 14 12 13 16 -10 40 -42 44 -30 121 24 153 15 9 61
20 103 25 42 6 84 15 94 21 28 16 33 14 45 -16z m-2162 -32 c41 -29 61 -64 67
-118 8 -65 -20 -129 -68 -158 -43 -25 -122 -26 -164 -1 -81 48 -94 180 -26
257 44 49 136 59 191 20z m330 0 c50 -35 66 -68 66 -134 -1 -105 -53 -161
-150 -161 -83 0 -135 43 -150 125 -8 45 9 111 38 144 45 52 141 65 196 26z
m353 -4 c5 -9 15 -7 38 6 43 26 86 25 115 -3 24 -23 25 -28 25 -157 l0 -134
-47 3 -48 3 -5 114 c-5 118 -13 137 -44 106 -13 -13 -16 -38 -16 -121 l0 -105
-47 3 -48 3 -5 114 c-3 63 -9 116 -15 118 -5 1 -17 -2 -25 -7 -11 -7 -16 -36
-20 -117 l-5 -108 -45 0 -45 0 0 150 0 150 35 3 c24 3 38 -2 47 -14 10 -14 15
-15 27 -5 37 31 109 29 128 -2z m1125 1 c15 -17 18 -39 18 -152 l0 -131 -47
-3 -48 -3 0 105 c0 109 -5 136 -24 136 -34 -1 -41 -20 -46 -127 l-5 -108 -48
-3 -48 -3 3 153 3 153 35 3 c24 3 38 -2 47 -14 10 -14 15 -15 27 -5 39 32 103
32 133 -1z m804 -6 c18 -23 19 -38 17 -151 l-3 -126 -45 0 -45 0 -3 113 c-3
122 -13 142 -52 107 -16 -15 -20 -34 -22 -119 l-3 -101 -45 0 -45 0 0 150 0
150 28 3 c16 2 39 -4 52 -12 14 -10 26 -12 30 -6 8 14 66 27 93 22 12 -2 31
-16 43 -30z m282 11 c35 -18 70 -90 65 -136 l-3 -32 -93 -3 c-100 -3 -108 -9
-59 -46 25 -18 29 -18 66 -4 39 16 40 16 56 -9 22 -32 8 -48 -54 -63 -87 -21
-171 18 -191 88 -44 161 75 276 213 205z m277 17 c35 0 88 -57 98 -106 17 -80
13 -84 -90 -84 -79 0 -89 -2 -86 -17 2 -10 15 -24 30 -32 24 -14 30 -14 62 1
35 17 35 17 56 -10 20 -25 20 -27 3 -39 -59 -44 -157 -38 -211 12 -34 31 -36
37 -40 102 -4 74 7 111 47 147 22 20 77 37 99 30 8 -2 22 -4 32 -4z m-5052
-118 c2 -89 6 -114 17 -119 35 -13 45 16 45 123 0 101 1 104 24 110 13 3 35 4
47 2 24 -3 24 -4 27 -155 l3 -153 -41 0 c-25 0 -43 5 -46 14 -4 10 -13 9 -44
-6 -27 -14 -49 -18 -70 -13 -52 11 -60 35 -60 176 0 69 3 129 7 133 4 4 25 6
48 4 l40 -3 3 -113z m1534 95 c9 -18 10 -18 32 2 12 12 34 21 49 21 23 0 27
-4 27 -27 0 -55 -11 -73 -40 -73 -43 0 -53 -23 -58 -121 l-4 -90 -47 3 -46 3
-3 140 c-1 76 0 145 3 152 7 21 74 13 87 -10z m2646 -135 l3 -153 -48 3 -48 3
-3 140 c-1 76 0 145 3 153 3 9 18 12 47 10 l43 -3 3 -153z m1096 152 c9 -3 16
-12 16 -20 0 -19 6 -18 30 6 11 11 33 20 50 20 30 0 31 -1 25 -37 -10 -58 -13
-63 -38 -63 -42 0 -56 -28 -59 -120 l-3 -85 -50 0 -50 0 -3 144 c-2 109 1 146
10 153 15 9 50 10 72 2z m1667 -117 c-8 -8 -11 1 -11 30 0 64 14 87 18 29 2
-27 -2 -54 -7 -59z m3139 -101 c0 -19 5 -38 10 -41 13 -8 13 -25 0 -25 -15 0
-44 66 -37 84 11 28 27 17 27 -18z m-3160 -75 c0 -5 -7 -14 -15 -21 -12 -10
-15 -10 -15 2 0 8 3 18 7 21 9 10 23 9 23 -2z m3601 -28 c7 -18 2 -40 -19 -91
-24 -56 -33 -68 -55 -70 -30 -4 -31 -2 -16 52 8 29 8 45 -1 61 -16 31 -9 57
18 71 32 16 62 6 73 -23z m1709 -158 c0 -153 3 -187 15 -191 8 -3 19 -22 26
-41 9 -29 9 -37 -2 -44 -20 -12 -67 -11 -92 3 -44 23 -46 34 -47 245 l0 202
28 4 c15 2 37 5 50 6 l22 1 0 -185z m4098 102 c3 -77 3 -78 25 -62 35 25 100
19 131 -11 42 -43 58 -135 36 -215 -21 -75 -110 -121 -165 -85 -20 13 -30 15
-40 6 -7 -6 -31 -10 -52 -8 l-38 3 -3 222 -2 222 27 4 c75 12 78 10 81 -76z
m-6198 38 c10 -12 10 -15 -3 -15 -8 0 -17 7 -21 15 -3 8 -2 15 3 15 5 0 14 -7
21 -15z m-568 -5 c48 -14 97 -55 114 -97 8 -18 14 -63 14 -100 0 -78 -23 -138
-64 -171 -36 -27 -117 -44 -202 -40 l-69 3 -3 208 -2 207 87 0 c49 0 105 -5
125 -10z m1140 -47 c3 -36 5 -38 38 -41 35 -3 36 -4 32 -37 -4 -32 -7 -35 -38
-35 l-34 0 0 -69 c0 -87 5 -101 39 -101 20 0 31 -7 39 -25 17 -37 15 -42 -19
-54 -43 -15 -75 -14 -108 3 -39 21 -51 56 -51 152 0 78 -2 85 -22 93 -31 11
-32 60 -1 72 17 6 23 16 23 38 0 32 10 38 67 40 30 1 32 -1 35 -36z m670 0 c3
-35 6 -38 36 -41 29 -3 33 -6 28 -25 -3 -12 -6 -28 -6 -34 0 -8 -13 -13 -30
-13 l-31 0 3 -82 c3 -82 3 -83 31 -86 34 -4 68 -59 45 -73 -24 -15 -79 -22
-110 -13 -55 16 -73 53 -76 160 -4 85 -6 94 -23 94 -28 0 -27 65 1 73 14 4 20
14 20 35 0 33 10 39 72 41 36 1 37 0 40 -36z m4300 0 c3 -35 6 -38 36 -41 31
-3 33 -6 30 -35 -3 -28 -7 -32 -35 -35 l-33 -3 0 -69 c0 -87 5 -100 41 -100
16 0 29 -3 29 -7 0 -5 5 -15 10 -23 8 -13 14 -10 34 15 22 27 26 28 50 17 37
-17 93 -15 99 2 7 18 -6 28 -65 50 -138 51 -108 196 40 196 54 0 122 -21 122
-38 0 -6 -8 -20 -18 -32 -17 -21 -21 -22 -55 -11 -39 13 -80 6 -74 -12 2 -6
30 -22 62 -34 69 -27 91 -45 98 -81 20 -102 -127 -167 -244 -107 -21 11 -34
13 -38 7 -9 -15 -57 -32 -87 -32 -37 0 -78 25 -92 55 -7 14 -12 66 -12 115 0
84 -1 89 -22 92 -35 5 -38 55 -4 68 20 7 26 17 26 39 0 33 9 39 62 40 35 1 37
0 40 -36z m-8809 -43 c3 -11 1 -23 -4 -26 -5 -3 -9 6 -9 20 0 31 6 34 13 6z
m3103 -6 c51 -24 78 -75 78 -148 0 -71 -19 -114 -65 -147 -72 -51 -191 -24
-231 51 -25 49 -24 144 2 188 41 67 138 93 216 56z m384 -4 c28 -28 31 -50 28
-185 l-3 -120 -50 0 -50 0 -3 123 c-3 121 -3 122 -26 122 -13 0 -28 -6 -34
-13 -6 -7 -13 -62 -14 -123 l-3 -109 -50 0 -50 0 -3 158 -3 157 50 0 c28 0 51
-5 53 -11 3 -8 13 -7 33 4 42 23 101 21 125 -3z m816 4 c39 -19 40 -21 15 -53
-17 -22 -21 -23 -54 -12 -40 13 -80 6 -74 -12 2 -7 32 -23 66 -37 72 -29 91
-50 91 -97 0 -46 -24 -78 -71 -97 -52 -21 -105 -20 -156 4 -47 21 -53 38 -23
65 17 15 24 16 46 7 13 -7 41 -12 60 -12 30 0 35 3 32 21 -2 14 -20 27 -61 44
-68 27 -86 47 -87 93 0 43 14 68 48 86 36 20 126 20 168 0z m531 -4 c38 -23
60 -61 63 -110 6 -73 10 -70 -95 -70 -100 0 -111 -6 -78 -42 19 -21 60 -23 98
-6 24 11 29 9 46 -12 10 -14 19 -29 19 -33 0 -4 -21 -17 -46 -29 -117 -51
-232 13 -242 135 -6 70 23 138 70 167 44 26 122 27 165 0z m322 6 c39 -20 51
-55 51 -147 0 -43 5 -87 11 -97 9 -14 8 -25 -3 -48 -15 -31 -40 -34 -69 -8
-15 13 -21 13 -50 -5 -40 -25 -79 -27 -119 -6 -36 19 -50 43 -50 87 0 62 39
96 123 107 52 6 63 16 48 41 -10 15 -58 18 -103 7 -23 -6 -27 -3 -37 25 -6 17
-10 33 -8 34 25 25 163 32 206 10z m671 -1 c16 -19 39 -19 64 0 30 23 89 19
113 -7 24 -26 26 -39 24 -196 l-1 -113 -47 3 -48 3 -5 120 -5 120 -25 0 -25 0
-5 -120 -5 -120 -50 0 -50 0 -5 120 c-5 108 -7 120 -24 123 -36 7 -46 -24 -46
-140 l0 -109 -47 3 -48 3 -3 158 -3 157 45 0 c26 0 46 -5 49 -12 3 -10 11 -9
33 4 36 22 97 23 114 3z m969 -1 c33 -24 51 -74 51 -146 0 -78 -27 -138 -74
-163 -31 -17 -48 -17 -103 0 -22 7 -23 5 -23 -59 0 -61 -2 -66 -24 -72 -13 -3
-37 -4 -52 -2 l-29 3 -3 223 -2 222 49 0 c29 0 51 -5 53 -12 3 -8 11 -7 28 5
31 22 99 22 129 1z m313 -14 c-6 -56 -13 -70 -33 -70 -56 0 -79 -46 -79 -163
l0 -68 -47 3 -48 3 -3 158 -3 157 45 0 c36 0 46 -4 51 -20 6 -20 7 -20 37 5
41 34 84 32 80 -5z m248 12 c48 -26 73 -80 72 -152 -1 -103 -52 -161 -146
-167 -99 -7 -166 60 -166 167 0 105 59 170 154 170 31 0 65 -7 86 -18z m357
-2 c45 -27 66 -73 67 -146 0 -136 -107 -209 -228 -156 -37 17 -51 30 -66 64
-40 88 -18 190 49 235 45 30 132 32 178 3z m368 0 c18 -19 18 -19 45 0 42 30
103 27 130 -7 19 -24 20 -37 18 -162 l-3 -136 -50 0 -50 0 -3 123 c-2 109 -5
122 -20 122 -36 0 -42 -21 -42 -137 l0 -113 -50 0 -50 0 0 103 c0 120 -6 147
-31 147 -28 0 -34 -18 -39 -135 l-5 -110 -50 0 -50 0 -3 158 -3 157 50 0 c30
0 51 -5 53 -12 4 -10 11 -8 29 4 34 24 101 23 124 -2z m498 9 c78 -35 89 -212
18 -292 -24 -26 -36 -31 -72 -31 -24 0 -52 3 -61 8 -16 7 -18 2 -18 -51 0 -33
-5 -64 -12 -71 -7 -7 -31 -12 -55 -12 l-43 0 0 225 0 225 43 0 c24 0 48 -5 54
-11 8 -8 17 -7 34 5 27 18 77 21 112 5z m1347 -8 c0 -46 -13 -81 -30 -81 -58
0 -80 -41 -80 -150 l0 -81 -47 3 -48 3 -3 158 -3 157 45 0 c37 0 45 -4 49 -22
6 -22 6 -22 31 5 31 33 86 38 86 8z m248 -1 c49 -30 72 -75 72 -143 0 -82 -28
-133 -87 -159 -120 -53 -227 21 -227 157 0 107 56 164 159 165 33 0 61 -7 83
-20z m-3993 -95 c17 -100 30 -133 39 -103 3 7 14 57 26 111 l22 97 54 0 c30 0
54 -1 54 -3 0 -2 -6 -23 -14 -48 -8 -24 -33 -102 -56 -174 -23 -71 -51 -143
-63 -159 -38 -53 -157 -89 -157 -47 0 11 -2 26 -5 33 -4 10 6 18 33 26 40 12
75 42 57 49 -5 2 -15 7 -21 11 -9 6 -94 278 -94 302 0 5 23 10 54 10 l53 0 18
-105z m-3765 54 c0 -6 -4 -7 -10 -4 -5 3 -10 11 -10 16 0 6 5 7 10 4 6 -3 10
-11 10 -16z m-6140 -49 c24 -24 25 -47 3 -72 -33 -36 -103 -10 -103 39 0 20
38 53 60 53 11 0 29 -9 40 -20z m1028 4 c43 -30 18 -94 -37 -94 -34 0 -51 17
-51 51 0 27 30 59 55 59 6 0 21 -7 33 -16z m2678 -13 c-12 -19 -24 -12 -19 10
4 13 9 17 15 11 6 -6 7 -15 4 -21z m-1936 -185 c0 -159 2 -175 19 -187 10 -8
22 -26 25 -41 6 -24 3 -28 -27 -33 -37 -7 -76 5 -97 30 -20 24 -28 368 -10
390 7 9 30 15 51 15 l39 0 0 -174z m170 0 c0 -159 2 -175 19 -187 10 -8 22
-26 25 -41 6 -24 3 -28 -27 -33 -35 -7 -76 5 -94 27 -13 15 -21 378 -9 397 4
6 25 11 47 11 l39 0 0 -174z m1730 136 c0 -4 -16 -24 -37 -43 -36 -34 -36 -27
1 24 19 26 36 35 36 19z m-7006 -113 c57 -49 71 -131 36 -207 -15 -34 -29 -47
-66 -64 -113 -49 -214 18 -214 142 0 104 53 160 152 160 50 0 62 -4 92 -31z
m345 5 c19 -24 21 -40 21 -156 l0 -129 -47 3 -48 3 -3 113 c-2 93 -5 114 -19
119 -10 4 -23 -2 -35 -16 -15 -19 -18 -41 -18 -122 l0 -99 -50 0 -50 0 0 150
0 150 43 0 c24 0 48 -5 55 -12 10 -9 16 -8 29 5 11 11 33 17 59 17 34 0 47 -5
63 -26z m405 -16 c-8 -51 -6 -48 -35 -53 -45 -9 -59 -39 -59 -132 l0 -84 -50
3 -51 3 -2 145 -2 145 48 3 c43 3 47 1 47 -20 0 -22 0 -22 27 5 17 16 38 27
55 27 28 0 28 -1 22 -42z m232 23 c36 -22 68 -91 62 -137 l-3 -29 -92 -3 c-51
-1 -93 -6 -93 -10 0 -4 7 -16 15 -26 15 -20 50 -24 100 -12 24 6 32 3 43 -14
17 -29 2 -46 -51 -61 -99 -26 -189 25 -202 116 -11 70 2 114 45 157 34 35 42
38 91 38 36 0 65 -7 85 -19z m293 8 c33 -12 37 -20 21 -50 -9 -17 -18 -18 -66
-13 -51 6 -56 5 -53 -11 3 -12 22 -24 52 -34 88 -30 120 -87 81 -146 -16 -25
-80 -55 -117 -55 -32 0 -90 18 -112 34 -20 14 -20 15 4 40 22 24 25 24 52 11
36 -19 63 -19 78 -1 10 12 8 18 -11 30 -13 8 -35 18 -50 21 -41 10 -78 52 -78
89 0 37 23 74 54 86 30 12 108 12 145 -1z m639 -5 c21 -14 25 -14 47 0 34 22
91 20 114 -3 26 -26 33 -67 29 -186 l-3 -100 -47 -3 -48 -3 0 98 c0 109 -6
143 -25 143 -27 0 -36 -31 -41 -132 l-4 -103 -45 -3 -45 -3 0 109 c0 85 -3
112 -15 122 -12 10 -18 10 -30 0 -11 -9 -15 -40 -17 -118 l-3 -107 -50 0 -50
0 0 145 0 145 38 3 c21 2 45 -2 53 -9 12 -10 18 -9 32 4 21 21 81 22 110 1z
m469 -18 c33 -30 37 -39 41 -95 l4 -61 -91 0 c-74 0 -91 -3 -91 -15 0 -8 11
-22 25 -31 22 -15 32 -15 67 -5 37 11 43 11 61 -7 25 -25 18 -36 -38 -57 -150
-58 -273 90 -198 238 21 42 69 67 131 67 45 0 57 -4 89 -34z m783 14 c18 -18
20 -33 20 -155 l0 -135 -45 0 -45 0 0 109 c0 87 -3 111 -16 122 -11 9 -20 10
-32 2 -14 -8 -18 -32 -22 -119 l-5 -109 -47 -3 -48 -3 -2 115 c-1 64 -2 131
-2 149 -1 30 1 32 37 35 21 2 45 -2 52 -8 11 -9 19 -8 37 4 32 23 93 21 118
-4z m439 -2 c-2 -49 -14 -71 -38 -73 -45 -3 -61 -38 -61 -131 l0 -84 -50 0
-50 0 0 150 0 150 45 0 c33 0 45 -4 45 -15 0 -21 13 -19 35 5 10 11 31 20 47
20 23 0 28 -4 27 -22z m238 2 c44 -26 63 -68 63 -137 0 -127 -100 -195 -213
-145 -57 25 -80 66 -81 142 0 101 54 160 149 160 32 0 62 -7 82 -20z m359 -1
c17 -18 19 -37 19 -153 l0 -131 -47 -3 -48 -3 0 105 c0 112 -5 136 -25 136
-35 0 -45 -29 -45 -136 l0 -104 -50 0 -50 0 0 150 0 150 44 0 c25 0 46 -5 48
-12 3 -8 11 -7 28 5 35 24 102 22 126 -4z m460 -1 c15 -14 14 -18 -1 -42 -12
-19 -23 -25 -34 -20 -61 26 -91 8 -98 -59 -4 -34 -1 -54 12 -73 15 -24 21 -25
60 -19 39 5 46 3 60 -19 21 -32 14 -43 -37 -57 -111 -29 -198 39 -198 156 0
65 38 128 90 148 29 12 130 1 146 -15z m265 -7 c28 -28 29 -33 29 -118 0 -49
5 -94 10 -99 7 -7 8 -19 1 -37 -12 -31 -45 -36 -73 -10 -17 15 -19 15 -39 -3
-31 -28 -100 -26 -133 5 -20 19 -26 34 -26 68 0 65 47 103 126 103 31 0 35 3
32 23 -3 20 -8 22 -61 22 -40 0 -61 4 -67 15 -27 42 2 58 103 59 63 1 71 -1
98 -28z m-3471 -91 c0 -93 3 -112 16 -117 39 -15 49 9 52 121 l3 106 50 0 50
0 -3 -147 -3 -148 -39 -3 c-23 -2 -42 2 -47 9 -5 9 -15 8 -42 -4 -50 -24 -74
-21 -108 12 -29 29 -29 30 -29 155 l0 126 50 0 50 0 0 -110z m1240 0 c0 -93 3
-112 16 -117 39 -15 49 9 52 121 l3 106 50 0 50 0 -3 -147 -3 -148 -42 -3
c-34 -2 -43 0 -43 12 0 14 -5 13 -37 -4 -52 -27 -79 -25 -114 9 -29 29 -29 30
-29 155 l0 126 50 0 50 0 0 -110z m650 -40 l0 -150 -50 0 -50 0 0 150 0 150
50 0 50 0 0 -150z m1030 0 l0 -150 -45 0 -45 0 0 150 0 150 45 0 45 0 0 -150z
m1065 50 c25 -135 29 -134 61 18 l17 82 49 0 c26 0 48 -3 48 -7 0 -23 -96
-313 -112 -341 -23 -38 -84 -72 -128 -72 -29 0 -31 2 -28 32 2 24 9 34 23 36
11 2 30 14 43 25 21 20 22 22 4 28 -13 5 -28 42 -57 140 -21 74 -40 140 -43
147 -3 9 11 12 50 12 l55 0 18 -100z m1483 88 c-2 -6 -10 -14 -16 -16 -7 -2
-10 2 -6 12 7 18 28 22 22 4z m-37 -56 c-6 -10 -23 -27 -38 -37 -27 -18 -26
-17 6 24 34 42 52 50 32 13z m3624 -112 c3 -5 1 -10 -4 -10 -6 0 -11 5 -11 10
0 6 2 10 4 10 3 0 8 -4 11 -10z m-3705 -54 c0 -8 -4 -18 -10 -21 -5 -3 -10 3
-10 14 0 12 5 21 10 21 6 0 10 -6 10 -14z m4115 -354 c-6 -7 -45 19 -45 29 0
5 11 2 24 -8 13 -10 23 -19 21 -21z m130 -100 c-3 -3 -11 0 -18 7 -9 10 -8 11
6 5 10 -3 15 -9 12 -12z m42 -18 c-3 -3 -12 -4 -19 -1 -8 3 -5 6 6 6 11 1 17
-2 13 -5z m192 -171 c2 -2 -3 -3 -11 -3 -9 0 -19 7 -22 16 -6 15 -4 15 11 3
10 -7 20 -15 22 -16z m-221 0 c-10 -2 -26 -2 -35 0 -10 3 -2 5 17 5 19 0 27
-2 18 -5z m569 -89 c-3 -3 -12 -4 -19 -1 -8 3 -5 6 6 6 11 1 17 -2 13 -5z
m-5257 -8 c0 -3 -4 -8 -10 -11 -5 -3 -10 -1 -10 4 0 6 5 11 10 11 6 0 10 -2
10 -4z m5305 -6 c3 -5 1 -10 -4 -10 -6 0 -11 5 -11 10 0 6 2 10 4 10 3 0 8 -4
11 -10z m-555 -14 c0 -3 -4 -8 -10 -11 -5 -3 -10 -1 -10 4 0 6 5 11 10 11 6 0
10 -2 10 -4z m-5160 -36 c0 -5 -12 -10 -27 -10 -22 0 -25 2 -13 10 20 13 40
13 40 0z m-270 -20 c0 -5 -4 -10 -10 -10 -5 0 -10 5 -10 10 0 6 5 10 10 10 6
0 10 -4 10 -10z m6230 0 c0 -5 -9 -10 -20 -10 -11 0 -20 5 -20 10 0 6 9 10 20
10 11 0 20 -4 20 -10z m-6317 -21 c-8 -8 -16 -8 -30 0 -16 9 -14 10 12 11 21
0 26 -3 18 -11z m-126 -15 c-3 -3 -12 -4 -19 -1 -8 3 -5 6 6 6 11 1 17 -2 13
-5z m-69 -21 c-10 -2 -28 -2 -40 0 -13 2 -5 4 17 4 22 1 32 -1 23 -4z m6667
-23 c3 -5 -1 -10 -10 -10 -9 0 -13 5 -10 10 3 6 8 10 10 10 2 0 7 -4 10 -10z
m65 -20 c12 -8 11 -10 -7 -10 -13 0 -23 5 -23 10 0 13 11 13 30 0z m240 -20
c0 -6 -35 -10 -85 -10 -50 0 -85 4 -85 10 0 6 35 10 85 10 50 0 85 -4 85 -10z"/>
<path d="M5264 9070 c-12 -5 -27 -23 -33 -41 -12 -33 -15 -277 -5 -317 14 -49
101 -68 148 -31 l26 20 0 165 c0 162 0 165 -25 189 -25 26 -70 32 -111 15z"/>
<path d="M7949 9061 c-23 -19 -24 -25 -27 -185 -3 -166 -3 -166 22 -191 35
-35 97 -35 131 0 24 24 25 27 25 185 0 158 -1 161 -25 185 -30 31 -92 34 -126
6z"/>
<path d="M8552 9063 c-34 -27 -44 -96 -36 -237 6 -107 9 -122 30 -143 33 -33
96 -32 130 2 25 25 25 26 22 190 -3 187 -6 194 -80 202 -33 4 -49 1 -66 -14z"/>
<path d="M5842 9048 c-7 -7 -12 -35 -12 -63 0 -28 5 -56 12 -63 18 -18 133
-15 152 4 23 22 21 96 -2 117 -22 20 -131 24 -150 5z"/>
<path d="M6750 9041 c-5 -11 -10 -36 -10 -56 0 -65 12 -75 89 -75 82 0 96 12
95 78 -1 59 -20 72 -101 72 -51 0 -64 -3 -73 -19z"/>
<path d="M7330 9041 c-14 -27 -13 -104 2 -119 15 -15 122 -16 148 -2 37 20 34
107 -4 132 -6 4 -39 8 -73 8 -51 0 -64 -3 -73 -19z"/>
<path d="M9946 9051 c-8 -13 -10 -117 -2 -130 4 -6 35 -11 76 -11 63 0 71 2
86 25 20 31 13 94 -13 112 -19 15 -139 18 -147 4z"/>
<path d="M15914 9046 c-3 -7 -4 -40 -2 -72 l3 -59 65 -3 c83 -4 105 10 105 66
0 63 -24 82 -102 82 -44 0 -65 -4 -69 -14z"/>
<path d="M9140 7789 c0 -5 5 -7 10 -4 6 3 10 8 10 11 0 2 -4 4 -10 4 -5 0 -10
-5 -10 -11z"/>
<path d="M9160 7734 c0 -8 5 -12 10 -9 6 4 8 11 5 16 -9 14 -15 11 -15 -7z"/>
<path d="M9165 7570 c3 -5 15 -10 26 -10 11 0 17 5 14 10 -3 6 -15 10 -26 10
-11 0 -17 -4 -14 -10z"/>
<path d="M9280 7550 c0 -5 5 -10 10 -10 6 0 10 5 10 10 0 6 -4 10 -10 10 -5 0
-10 -4 -10 -10z"/>
<path d="M9302 7500 c0 -14 2 -19 5 -12 2 6 2 18 0 25 -3 6 -5 1 -5 -13z"/>
<path d="M9581 7434 c0 -11 3 -14 6 -6 3 7 2 16 -1 19 -3 4 -6 -2 -5 -13z"/>
<path d="M9559 7403 c-12 -3 -15 -16 -12 -66 2 -33 8 -64 14 -68 8 -5 8 -9 0
-13 -16 -10 -13 -26 4 -26 13 0 15 16 14 90 -1 50 -2 89 -3 89 0 -1 -8 -3 -17
-6z"/>
<path d="M9676 7261 c-4 -5 -2 -12 3 -15 5 -4 12 -2 15 3 4 5 2 12 -3 15 -5 4
-12 2 -15 -3z"/>
<path d="M9660 7214 c0 -8 5 -12 10 -9 6 3 10 10 10 16 0 5 -4 9 -10 9 -5 0
-10 -7 -10 -16z"/>
<path d="M9765 7080 c3 -5 8 -10 11 -10 2 0 4 5 4 10 0 6 -5 10 -11 10 -5 0
-7 -4 -4 -10z"/>
<path d="M9751 7024 c0 -11 3 -14 6 -6 3 7 2 16 -1 19 -3 4 -6 -2 -5 -13z"/>
<path d="M8470 7610 c0 -5 7 -10 16 -10 8 0 12 5 9 10 -3 6 -10 10 -16 10 -5
0 -9 -4 -9 -10z"/>
<path d="M8520 7580 c0 -10 56 -33 71 -28 6 2 -7 11 -30 20 -22 9 -41 13 -41
8z"/>
<path d="M9115 7290 c-3 -5 1 -10 9 -10 9 0 16 5 16 10 0 6 -4 10 -9 10 -6 0
-13 -4 -16 -10z"/>
<path d="M9108 7228 c23 -23 39 -20 29 7 -4 8 -17 15 -29 15 l-22 0 22 -22z"/>
<path d="M8676 7201 c-4 -7 -5 -15 -2 -18 9 -9 19 4 14 18 -4 11 -6 11 -12 0z"/>
<path d="M8950 7200 c0 -6 -11 -16 -25 -22 -23 -10 -25 -16 -25 -85 0 -66 2
-73 17 -65 13 8 16 22 14 66 -2 54 -1 56 23 56 28 0 40 -25 30 -64 -4 -16 -2
-26 5 -26 6 0 11 -15 11 -33 0 -18 5 -38 12 -45 8 -8 8 -15 -3 -28 -12 -14
-11 -16 6 -12 12 2 19 10 17 20 -1 9 7 22 18 28 12 6 18 16 13 23 -10 16 -5
68 9 84 8 10 8 17 0 25 -7 7 -12 9 -12 6 0 -3 -17 0 -37 7 -26 9 -38 19 -38
32 0 22 -13 43 -26 43 -5 0 -9 -5 -9 -10z"/>
<path d="M9160 7155 c0 -8 7 -15 16 -15 14 0 14 3 4 15 -7 8 -14 15 -16 15 -2
0 -4 -7 -4 -15z"/>
<path d="M9441 7124 c0 -11 3 -14 6 -6 3 7 2 16 -1 19 -3 4 -6 -2 -5 -13z"/>
<path d="M8650 7120 c0 -5 7 -10 16 -10 8 0 12 5 9 10 -3 6 -10 10 -16 10 -5
0 -9 -4 -9 -10z"/>
<path d="M9351 7074 c0 -11 3 -14 6 -6 3 7 2 16 -1 19 -3 4 -6 -2 -5 -13z"/>
<path d="M8625 7053 c33 -2 64 -8 70 -14 5 -5 16 -9 25 -9 9 1 6 6 -10 15 -15
9 -49 14 -85 13 l-60 -2 60 -3z"/>
<path d="M9503 7053 c-20 -7 -15 -23 7 -23 11 0 20 4 20 9 0 13 -12 19 -27 14z"/>
<path d="M8499 7000 c26 -23 81 -25 88 -3 3 8 -6 10 -30 6 -19 -3 -45 0 -58 6
l-24 12 24 -21z"/>
<path d="M8950 7010 c0 -5 5 -10 10 -10 6 0 10 5 10 10 0 6 -4 10 -10 10 -5 0
-10 -4 -10 -10z"/>
<path d="M8435 6940 c3 -5 14 -10 24 -10 9 0 22 -5 28 -11 6 -6 17 -9 24 -7 8
3 -1 12 -20 21 -38 19 -65 22 -56 7z"/>
<path d="M8948 6908 c-2 -27 -7 -33 -25 -32 -15 0 -20 -3 -14 -10 5 -6 12 -42
16 -80 6 -55 11 -70 26 -73 11 -3 19 -12 19 -19 0 -8 11 -20 25 -26 16 -7 25
-19 25 -35 0 -27 12 -30 30 -8 14 17 11 23 -22 39 -20 10 -36 49 -40 96 -1 8
-7 26 -15 40 -11 22 -11 27 5 38 9 7 16 22 14 32 -2 11 2 20 7 20 18 0 12 27
-6 34 -10 3 -23 9 -30 12 -7 3 -13 -7 -15 -28z"/>
<path d="M8880 6910 c0 -5 5 -10 10 -10 6 0 10 5 10 10 0 6 -4 10 -10 10 -5 0
-10 -4 -10 -10z"/>
<path d="M9561 6884 c0 -11 3 -14 6 -6 3 7 2 16 -1 19 -3 4 -6 -2 -5 -13z"/>
<path d="M9682 6740 c0 -14 2 -19 5 -12 2 6 2 18 0 25 -3 6 -5 1 -5 -13z"/>
<path d="M8960 6585 c-14 -16 -5 -36 13 -29 13 5 18 44 6 44 -4 0 -12 -7 -19
-15z"/>
<path d="M8978 6543 c-24 -6 -23 -25 3 -42 19 -11 24 -10 42 7 31 32 9 49 -45
35z"/>
<path d="M8283 6503 c9 -9 20 -13 24 -9 4 4 1 11 -7 16 -25 16 -35 11 -17 -7z"/>
<path d="M8987 6446 c-24 -18 -21 -26 8 -26 15 0 25 6 25 14 0 22 -13 26 -33
12z"/>
<path d="M8917 6383 c-8 -7 11 -33 24 -33 5 0 9 9 9 20 0 19 -20 27 -33 13z"/>
<path d="M8922 6318 c6 -18 28 -21 28 -4 0 9 -7 16 -16 16 -9 0 -14 -5 -12
-12z"/>
<path d="M8921 6244 c0 -11 3 -14 6 -6 3 7 2 16 -1 19 -3 4 -6 -2 -5 -13z"/>
<path d="M8970 6210 c0 -5 7 -10 15 -10 8 0 15 5 15 10 0 6 -7 10 -15 10 -8 0
-15 -4 -15 -10z"/>
<path d="M8922 6185 c0 -16 2 -22 5 -12 2 9 2 23 0 30 -3 6 -5 -1 -5 -18z"/>
<path d="M8935 6130 c-7 -12 12 -40 26 -40 5 0 9 11 9 25 0 25 -23 35 -35 15z"/>
<path d="M9012 6069 c-16 -24 -10 -34 14 -25 9 4 14 9 11 13 -4 3 -2 12 4 20
9 10 8 13 -2 13 -8 0 -20 -9 -27 -21z"/>
<path d="M9020 5960 c0 -11 7 -20 15 -20 17 0 18 2 9 24 -9 23 -24 20 -24 -4z"/>
<path d="M8986 5808 c-9 -43 8 -57 29 -24 10 15 16 28 14 29 -2 2 -11 8 -20
15 -14 11 -17 8 -23 -20z"/>
<path d="M9055 5800 c3 -5 8 -10 11 -10 2 0 4 5 4 10 0 6 -5 10 -11 10 -5 0
-7 -4 -4 -10z"/>
<path d="M8915 5710 c-52 -21 -122 -31 -149 -20 -32 12 -66 13 -66 2 0 -30
139 -58 166 -33 15 14 81 20 93 8 8 -8 14 -8 23 1 9 9 7 16 -7 32 -19 22 -29
23 -60 10z"/>
<path d="M9025 5520 c-3 -5 3 -10 14 -10 12 0 21 5 21 10 0 6 -6 10 -14 10 -8
0 -18 -4 -21 -10z"/>
<path d="M8925 5498 c-86 -17 -244 -21 -261 -7 -11 9 -18 9 -26 1 -7 -7 -9
-15 -5 -18 10 -10 203 -18 224 -9 10 4 34 7 54 6 21 -1 40 2 44 8 3 6 17 11
31 11 13 0 24 5 24 10 0 12 -15 11 -85 -2z"/>
<path d="M8550 5460 c0 -5 17 -21 39 -34 37 -24 101 -42 186 -53 22 -3 44 -9
50 -14 13 -12 192 -11 200 1 3 6 26 10 51 10 28 0 43 4 39 10 -3 6 -21 10 -40
10 -19 0 -37 -4 -40 -10 -8 -12 -207 -13 -220 -1 -6 5 -28 11 -50 15 -85 12
-115 19 -121 27 -3 5 -12 9 -20 9 -8 0 -23 9 -34 20 -21 21 -40 26 -40 10z"/>
<path d="M9505 5412 c-6 -4 -16 -20 -23 -35 -14 -33 -4 -40 50 -35 28 3 33 7
36 32 5 38 -32 60 -63 38z"/>
<path d="M8560 5311 c0 -5 12 -15 28 -22 15 -8 48 -27 74 -42 l47 -28 153 5
c166 5 238 13 238 27 0 14 -47 22 -83 14 -17 -4 -90 -9 -162 -12 l-130 -4 -55
35 c-50 33 -110 48 -110 27z"/>
<path d="M8500 5065 c0 -14 37 -45 53 -45 26 0 16 24 -11 28 -12 2 -22 8 -22
13 0 5 -4 9 -10 9 -5 0 -10 -2 -10 -5z"/>
<path d="M8570 5006 c0 -3 14 -12 32 -20 36 -18 262 -23 273 -6 3 6 15 10 26
10 10 0 19 5 19 10 0 6 -6 10 -14 10 -8 0 -18 -4 -21 -10 -4 -6 -62 -10 -140
-10 -78 0 -136 4 -140 10 -6 10 -35 14 -35 6z"/>
<path d="M8300 4931 c0 -6 11 -11 24 -11 14 0 27 -4 30 -9 3 -4 29 -11 57 -15
35 -5 67 -18 96 -38 37 -27 53 -32 123 -36 44 -3 83 -9 86 -13 7 -12 271 -12
278 0 3 5 26 12 51 15 24 4 47 11 50 17 4 5 17 9 30 9 13 0 27 5 31 12 9 14
-76 2 -90 -13 -6 -5 -20 -9 -32 -9 -13 0 -26 -4 -29 -10 -4 -6 -65 -10 -150
-10 -85 0 -146 4 -150 10 -3 6 -33 10 -65 10 -47 0 -71 7 -122 33 -36 19 -89
39 -119 46 -30 6 -64 14 -76 18 -14 3 -23 1 -23 -6z"/>
<path d="M9230 4930 c0 -5 9 -10 20 -10 11 0 20 5 20 10 0 6 -9 10 -20 10 -11
0 -20 -4 -20 -10z"/>
<path d="M9409 4902 c-13 -10 -46 -29 -74 -41 -27 -12 -57 -27 -65 -32 -18
-11 -76 -39 -105 -49 -11 -5 -45 -18 -75 -31 -53 -23 -67 -24 -342 -27 -198
-3 -288 0 -288 7 0 10 -19 20 -132 69 -44 19 -47 23 -50 64 -2 30 -7 43 -18
43 -11 0 -16 -13 -18 -44 -4 -52 21 -84 77 -102 20 -6 65 -27 99 -45 l64 -35
246 4 c266 4 285 6 379 43 34 13 70 24 80 24 10 0 29 6 43 14 14 7 61 32 105
56 44 23 87 49 96 56 8 8 23 14 33 14 10 0 16 6 14 13 -7 20 -42 19 -69 -1z"/>
<path d="M9187 4903 c-12 -12 -7 -22 8 -17 8 4 15 10 15 15 0 11 -14 12 -23 2z"/>
<path d="M10006 4716 c3 -13 1 -27 -6 -31 -7 -4 -9 -18 -5 -37 6 -27 5 -29
-14 -23 -15 4 -23 1 -27 -10 -4 -9 -13 -14 -20 -11 -7 3 -16 1 -19 -4 -4 -6 1
-10 9 -10 12 0 16 -11 16 -50 0 -40 -4 -51 -21 -60 -11 -6 -25 -9 -32 -6 -9 3
-9 5 1 5 20 1 14 26 -13 51 -14 13 -25 34 -25 48 0 21 -4 24 -27 19 -18 -3
-31 0 -39 11 -11 15 -14 14 -31 -7 -16 -19 -23 -22 -39 -13 -42 23 -157 72
-168 72 -6 -1 7 -10 29 -22 22 -11 54 -32 71 -44 17 -13 38 -24 47 -24 9 0 19
-4 22 -10 10 -16 48 -12 42 4 -7 18 12 26 36 14 19 -10 24 -48 5 -48 -6 0 -3
-9 7 -20 17 -19 17 -22 3 -37 -22 -22 -42 -12 -63 33 l-18 38 -19 -24 c-13
-16 -16 -26 -8 -34 30 -30 -14 -50 -62 -26 -52 25 -96 30 -103 11 -3 -8 1 -21
10 -30 12 -13 20 -13 49 -3 37 14 72 5 95 -22 30 -36 -13 -47 -69 -18 -22 12
-48 17 -70 15 -26 -4 -40 0 -54 15 -10 12 -24 18 -32 15 -8 -3 -26 -2 -40 1
-20 6 -25 12 -22 29 4 20 1 23 -24 19 -23 -4 -28 -9 -28 -33 0 -16 -4 -29 -10
-29 -14 0 -12 -44 2 -58 10 -10 10 -17 0 -32 -7 -12 -8 -21 -2 -25 21 -13 9
-25 -24 -25 -40 0 -54 23 -26 43 22 15 17 27 -12 27 -12 0 -17 -7 -15 -22 2
-21 -2 -23 -40 -20 -53 3 -63 -12 -21 -34 28 -15 195 -35 283 -34 117 2 304
18 322 28 12 6 32 12 45 12 14 0 38 14 58 35 19 19 39 35 45 35 7 0 20 9 29
19 10 11 31 23 47 26 16 4 29 13 29 20 0 8 11 35 25 62 30 55 32 138 5 138
-10 0 -14 -8 -12 -23 2 -19 -2 -22 -17 -17 -11 3 -22 1 -26 -5 -8 -13 -25 -3
-25 16 0 8 7 14 15 14 12 0 13 4 5 19 -5 11 -10 40 -10 65 0 25 -5 46 -10 46
-6 0 -8 -10 -4 -24z m-45 -219 c-8 -8 -11 -4 -11 14 0 33 14 47 18 19 2 -12
-1 -27 -7 -33z m69 -22 c0 -8 -4 -15 -9 -15 -13 0 -22 16 -14 24 11 11 23 6
23 -9z m-62 -52 c-4 -21 -63 -54 -83 -47 -8 4 -15 1 -15 -5 0 -23 -30 -10 -45
19 -19 36 -16 38 70 43 33 2 64 4 68 5 5 1 7 -5 5 -15z m-534 -12 c3 -5 14 -7
24 -4 10 2 24 -3 31 -11 10 -12 18 -13 33 -5 14 7 23 7 34 -2 18 -15 18 -29
-1 -29 -8 0 -15 -4 -15 -10 0 -5 15 -10 33 -10 18 0 38 -5 45 -12 8 -8 15 -8
27 2 12 10 21 10 42 1 22 -10 28 -9 44 8 11 11 19 27 19 36 0 16 9 19 34 9 20
-8 21 -24 1 -24 -8 0 -15 -4 -15 -10 0 -5 11 -10 25 -10 28 0 34 -24 9 -34 -9
-4 -31 -4 -49 0 -19 3 -35 1 -39 -5 -5 -7 -44 -11 -102 -11 -74 0 -94 3 -94
14 0 18 -25 28 -79 31 -47 3 -61 15 -61 58 0 22 4 27 24 27 14 0 27 -4 30 -9z"/>
<path d="M7770 4676 c0 -8 5 -18 10 -21 6 -3 10 3 10 14 0 12 -4 21 -10 21 -5
0 -10 -6 -10 -14z"/>
<path d="M7656 4626 c3 -13 1 -33 -5 -44 -8 -15 -8 -23 0 -28 6 -3 9 -14 6
-24 -3 -12 6 -29 24 -46 35 -34 36 -40 4 -46 -17 -4 -29 0 -35 11 -5 9 -9 12
-9 6 0 -15 28 -62 29 -47 0 6 9 12 20 12 11 0 20 5 20 10 0 6 7 10 15 10 19 0
19 9 -1 48 -8 18 -13 40 -10 50 4 12 -3 29 -19 48 -14 16 -25 37 -25 47 0 9
-5 17 -10 17 -6 0 -8 -10 -4 -24z"/>
<path d="M9470 4626 c0 -2 11 -11 25 -20 25 -17 25 -16 13 4 -11 17 -38 29
-38 16z"/>
<path d="M7832 4552 c-2 -52 -23 -64 -56 -33 -28 27 -57 30 -34 4 16 -19 38
-76 38 -100 0 -11 -4 -11 -21 -2 -17 9 -23 8 -30 -2 -16 -25 -9 -32 24 -26 41
6 54 -1 58 -32 2 -14 10 -26 18 -29 10 -3 12 3 6 27 -5 24 -3 31 9 31 9 0 16
-5 16 -11 0 -6 10 -9 22 -7 33 4 35 35 4 49 -32 15 -33 33 -4 46 22 10 22 10
-7 24 -25 12 -31 22 -36 59 l-6 45 -1 -43z m6 -89 c-4 -22 -22 -20 -26 1 -2
10 3 16 13 16 10 0 15 -7 13 -17z"/>
<path d="M9547 4559 c7 -7 15 -10 18 -7 3 3 -2 9 -12 12 -14 6 -15 5 -6 -5z"/>
<path d="M8196 4545 c-10 -8 -24 -16 -30 -18 -6 -2 -8 -7 -5 -11 3 -3 21 5 39
19 19 14 30 25 24 25 -5 0 -18 -7 -28 -15z"/>
<path d="M7341 4543 c0 -7 -13 -13 -28 -13 -21 0 -24 -3 -13 -9 8 -6 17 -8 21
-5 4 2 9 -5 12 -16 7 -26 23 -26 30 0 3 11 1 20 -3 20 -5 0 -11 8 -13 18 -3 9
-5 11 -6 5z"/>
<path d="M7586 4525 c-3 -8 -12 -15 -21 -15 -18 0 -18 -8 0 -40 12 -22 14 -23
20 -7 4 9 13 17 21 17 18 0 17 20 0 43 -12 15 -14 16 -20 2z"/>
<path d="M9282 4500 c0 -19 2 -27 5 -17 2 9 2 25 0 35 -3 9 -5 1 -5 -18z"/>
<path d="M7410 4453 c0 -22 5 -33 14 -33 24 0 26 14 5 40 l-19 25 0 -32z"/>
<path d="M8730 4406 c0 -19 4 -37 8 -40 5 -3 7 -24 6 -48 -2 -24 -3 -51 -3
-61 -1 -10 -9 -21 -18 -24 -10 -4 -26 -16 -35 -28 -18 -22 -22 -17 -31 38 -3
20 -1 25 6 18 18 -18 27 -12 27 17 0 19 -7 30 -22 37 -18 8 -23 18 -22 43 2
40 -6 40 -35 1 l-22 -30 25 -67 c14 -37 26 -75 26 -85 0 -12 4 -15 12 -11 7 4
29 7 50 5 34 -2 38 1 38 21 0 23 35 54 55 50 16 -3 17 57 2 98 -15 44 -49 100
-59 100 -4 0 -8 -15 -8 -34z"/>
<path d="M7571 4413 c-13 -14 -12 -17 3 -28 9 -7 16 -21 14 -31 -5 -27 25 -28
37 -2 7 17 7 31 -3 51 -15 31 -30 34 -51 10z"/>
<path d="M8220 4419 c0 -5 5 -7 10 -4 6 3 10 8 10 11 0 2 -4 4 -10 4 -5 0 -10
-5 -10 -11z"/>
<path d="M9210 4416 c0 -16 24 -38 33 -30 8 9 -11 44 -23 44 -6 0 -10 -6 -10
-14z"/>
<path d="M8470 4410 c0 -5 5 -10 11 -10 5 0 7 5 4 10 -3 6 -8 10 -11 10 -2 0
-4 -4 -4 -10z"/>
<path d="M10070 4403 c1 -14 49 -43 55 -33 3 5 -8 16 -25 25 -16 8 -30 12 -30
8z"/>
<path d="M7465 4390 c3 -5 8 -10 11 -10 2 0 4 5 4 10 0 6 -5 10 -11 10 -5 0
-7 -4 -4 -10z"/>
<path d="M8480 4387 c0 -4 6 -16 12 -27 10 -16 10 -24 1 -40 -8 -12 -9 -21 -3
-25 6 -3 10 -18 10 -33 1 -26 1 -26 16 -7 13 17 16 18 24 5 5 -8 10 -25 10
-37 0 -13 5 -23 10 -23 15 0 12 68 -3 77 -7 4 -19 22 -25 38 -13 32 -51 85
-52 72z"/>
<path d="M7670 4360 c-12 -8 -11 -10 7 -10 12 0 27 -8 32 -19 11 -19 51 -36
51 -21 0 8 -62 60 -71 60 -2 0 -11 -5 -19 -10z"/>
<path d="M8830 4346 c0 -22 26 -43 38 -31 8 8 -16 55 -28 55 -5 0 -10 -11 -10
-24z"/>
<path d="M7930 4356 c0 -2 7 -7 16 -10 8 -3 12 -2 9 4 -6 10 -25 14 -25 6z"/>
<path d="M8445 4330 c3 -5 11 -10 16 -10 6 0 7 5 4 10 -3 6 -11 10 -16 10 -6
0 -7 -4 -4 -10z"/>
<path d="M9020 4313 c0 -25 24 -91 38 -105 9 -9 12 0 12 38 0 37 -5 56 -18 67
-24 22 -32 21 -32 0z"/>
<path d="M8927 4313 c-4 -3 -7 -15 -7 -25 0 -11 -7 -18 -20 -18 -11 0 -20 5
-20 12 0 9 -3 9 -11 1 -9 -9 -9 -19 1 -42 27 -65 62 -64 64 3 1 20 7 41 14 48
7 7 12 16 12 20 0 10 -24 11 -33 1z"/>
<path d="M9201 4224 c0 -11 3 -14 6 -6 3 7 2 16 -1 19 -3 4 -6 -2 -5 -13z"/>
<path d="M8487 4223 c-11 -10 -8 -43 3 -43 6 0 10 11 10 25 0 26 -2 29 -13 18z"/>
<path d="M9576 4181 c-16 -18 -46 -34 -118 -66 -41 -17 -50 -35 -19 -35 11 0
23 -5 26 -10 3 -6 17 -7 31 -4 20 5 24 3 24 -16 0 -19 -4 -21 -25 -16 -20 5
-25 3 -25 -13 0 -28 48 -41 150 -41 81 0 88 2 112 28 32 34 48 65 48 91 0 14
6 21 20 21 33 0 23 25 -21 53 -35 23 -52 27 -113 27 -58 0 -76 -4 -90 -19z
m176 -47 c16 -36 16 -38 -9 -70 -26 -34 -57 -45 -65 -21 -2 6 -2 38 0 70 4 54
5 57 31 57 21 0 30 -8 43 -36z"/>
<path d="M8055 4170 c-3 -5 -3 -15 0 -20 4 -6 10 -55 14 -110 4 -55 11 -103
14 -106 3 -4 13 -4 22 -1 12 5 15 23 15 80 0 41 -3 95 -6 121 -6 40 -10 46
-30 46 -12 0 -26 -4 -29 -10z"/>
<path d="M8920 4146 c0 -14 5 -26 10 -26 6 0 10 9 10 19 0 11 -4 23 -10 26 -6
4 -10 -5 -10 -19z"/>
<path d="M9005 4120 c3 -5 8 -10 11 -10 2 0 4 5 4 10 0 6 -5 10 -11 10 -5 0
-7 -4 -4 -10z"/>
<path d="M10215 4121 c-7 -12 12 -24 25 -16 11 7 4 25 -10 25 -5 0 -11 -4 -15
-9z"/>
<path d="M7618 4099 c-29 -16 -21 -32 11 -26 29 6 29 6 38 -56 l8 -62 95 3
c128 4 187 19 194 48 4 13 15 24 28 26 33 5 31 22 -4 35 -18 6 -51 18 -73 27
-47 18 -269 22 -297 5z m304 -35 c4 -3 8 -16 8 -29 0 -29 -30 -48 -68 -43 -24
3 -27 8 -30 47 l-3 44 42 -7 c23 -4 46 -9 51 -12z"/>
<path d="M9020 4080 c0 -5 7 -10 16 -10 8 0 12 5 9 10 -3 6 -10 10 -16 10 -5
0 -9 -4 -9 -10z"/>
<path d="M10280 4055 c0 -8 5 -15 10 -15 6 0 10 7 10 15 0 8 -4 15 -10 15 -5
0 -10 -7 -10 -15z"/>
<path d="M9060 4040 c0 -5 5 -10 11 -10 5 0 7 5 4 10 -3 6 -8 10 -11 10 -2 0
-4 -4 -4 -10z"/>
<path d="M8462 4018 c-7 -7 -12 -41 -12 -84 0 -42 -8 -95 -19 -130 -10 -33
-22 -74 -26 -92 -3 -18 -23 -54 -43 -80 -69 -89 -82 -111 -82 -137 0 -18 -7
-28 -26 -35 -64 -25 -81 -98 -45 -201 42 -125 54 -155 67 -174 8 -11 14 -42
14 -70 1 -27 7 -61 15 -75 8 -14 14 -31 15 -37 0 -19 -28 -16 -32 3 -2 11 -16
17 -43 19 -60 5 -76 -2 -69 -30 3 -12 1 -26 -5 -30 -6 -3 -8 -17 -5 -29 4 -16
0 -25 -10 -29 -9 -4 -16 -13 -16 -21 0 -26 48 -126 76 -159 57 -67 211 -163
302 -187 50 -13 184 -6 286 16 128 28 276 130 276 191 0 23 23 32 35 13 10
-15 35 -12 35 5 0 8 -9 20 -20 27 -20 13 -28 38 -11 38 5 0 42 -34 84 -75 73
-73 97 -88 97 -62 0 19 -91 118 -139 151 -35 24 -39 31 -30 48 6 11 7 23 3 26
-4 4 -9 1 -11 -5 -5 -15 -42 -17 -63 -3 -8 5 -15 22 -15 37 0 18 -6 29 -17 31
-14 3 -18 -3 -18 -27 0 -34 -26 -44 -36 -13 -3 9 -11 30 -17 46 -10 28 -11 29
-20 8 -8 -18 -19 -22 -54 -22 -25 0 -58 -8 -74 -17 -25 -15 -33 -15 -50 -5
-40 25 -73 -6 -66 -63 2 -22 2 -22 -106 -8 -69 10 -87 21 -87 56 0 12 -8 17
-29 17 -16 0 -31 6 -34 14 -8 22 17 61 41 64 18 3 23 9 20 29 -6 49 -41 53
-99 11 -31 -22 -49 -3 -49 52 0 31 -8 65 -19 88 -20 37 -59 134 -83 205 -8 25
-9 43 -3 51 6 8 41 61 80 118 38 56 79 115 90 129 12 15 34 62 50 105 25 69
29 94 29 193 1 113 -6 135 -32 109z m-182 -1173 l23 -25 -41 0 c-45 0 -60 13
-42 35 18 21 33 19 60 -10z m595 -15 c4 -6 2 -17 -4 -24 -9 -11 -2 -19 35 -40
26 -14 50 -26 54 -26 15 0 70 -35 70 -44 0 -4 -27 -6 -61 -4 -57 4 -63 7 -111
55 -44 45 -49 53 -39 72 12 22 45 28 56 11z m-426 -14 c9 -10 9 -16 1 -21 -13
-8 -42 14 -34 26 8 13 20 11 33 -5z m-171 -113 c3 -67 -1 -73 -30 -46 -13 11
-18 30 -18 65 0 45 2 49 23 46 20 -3 22 -9 25 -65z m522 52 c7 -9 10 -18 6
-22 -9 -10 -59 10 -64 25 -6 18 43 15 58 -3z m-359 -22 c6 -6 11 -55 12 -109
2 -117 -4 -123 -79 -71 -45 31 -50 38 -58 89 -5 30 -6 68 -2 83 7 26 9 27 62
23 30 -3 59 -9 65 -15z m106 -11 c16 -10 32 -86 33 -154 0 -31 4 -59 9 -62 9
-6 34 18 27 25 -3 2 -6 42 -7 89 l-2 85 33 -3 c67 -7 77 -22 79 -122 1 -48 -2
-91 -8 -94 -14 -9 -173 -10 -198 -2 -22 7 -23 12 -23 127 0 117 0 119 23 119
12 0 27 -4 34 -8z m295 -69 c29 -6 29 -6 26 -72 l-3 -66 -43 -14 c-66 -20 -72
-14 -72 77 0 43 3 82 7 86 4 4 18 4 31 1 14 -3 38 -9 54 -12z m165 -48 c2 -8
-78 -65 -92 -65 -3 0 -5 19 -5 43 l0 43 47 -6 c25 -3 48 -10 50 -15z"/>
<path d="M9924 3973 c-9 -21 -38 -57 -66 -81 l-50 -43 -221 4 c-122 2 -241 8
-264 14 -44 11 -82 45 -83 75 0 20 -19 34 -30 22 -28 -30 41 -124 91 -124 15
0 31 -4 34 -10 4 -6 98 -10 250 -10 l245 0 54 48 c54 48 94 111 82 131 -13 20
-26 11 -42 -26z"/>
<path d="M10230 3919 c0 -52 3 -70 13 -66 6 2 11 15 9 28 -5 42 -5 63 3 87 6
17 3 22 -9 22 -13 0 -16 -12 -16 -71z"/>
<path d="M10300 3931 c0 -23 5 -41 10 -41 6 0 10 15 10 34 0 19 -4 38 -10 41
-6 4 -10 -10 -10 -34z"/>
<path d="M7484 3925 c-8 -21 8 -38 63 -66 27 -13 65 -34 86 -47 36 -22 46 -23
160 -19 118 4 284 26 320 41 12 6 17 4 17 -8 0 -9 5 -16 10 -16 6 0 10 6 10
14 0 8 12 29 26 46 19 22 24 34 16 42 -8 8 -21 2 -47 -20 -19 -18 -45 -34 -58
-37 -129 -28 -397 -43 -418 -23 -8 7 -43 28 -79 47 -36 19 -69 40 -73 47 -11
18 -26 18 -33 -1z"/>
<path d="M10425 3930 c-3 -5 -1 -10 4 -10 6 0 11 5 11 10 0 6 -2 10 -4 10 -3
0 -8 -4 -11 -10z"/>
<path d="M10405 3888 c-10 -26 2 -55 17 -40 8 8 8 18 1 34 -10 21 -12 21 -18
6z"/>
<path d="M8212 3839 c2 -6 8 -10 13 -10 5 0 11 4 13 10 2 6 -4 11 -13 11 -9 0
-15 -5 -13 -11z"/>
<path d="M10387 3794 c4 -25 2 -39 -8 -45 -11 -6 -13 -28 -11 -92 3 -54 0 -87
-7 -91 -18 -12 -13 -38 7 -34 14 3 17 15 19 73 2 98 14 139 40 143 22 3 38 38
22 48 -5 3 -19 2 -30 -1 -18 -6 -20 -4 -14 14 4 15 2 21 -9 21 -11 0 -13 -8
-9 -36z"/>
<path d="M8954 3787 c-37 -55 -54 -95 -54 -127 0 -16 5 -30 10 -30 6 0 10 5
10 11 0 21 52 118 75 141 13 12 21 26 19 30 -11 18 -40 6 -60 -25z"/>
<path d="M10210 3540 c0 -22 5 -40 10 -40 6 0 10 18 10 40 0 22 -4 40 -10 40
-5 0 -10 -18 -10 -40z"/>
<path d="M10230 3462 c0 -4 6 -17 14 -28 15 -20 12 -100 -5 -118 -12 -14 -11
-116 1 -116 6 0 10 20 10 44 0 25 4 48 10 51 5 3 7 18 4 33 -6 29 30 87 47 77
13 -9 11 -72 -3 -95 -7 -10 -9 -22 -5 -26 13 -14 27 12 28 52 1 21 8 49 15 61
18 28 18 33 -1 33 -8 0 -15 9 -15 20 0 14 -7 20 -24 20 -13 0 -26 -6 -29 -12
-3 -10 -9 -10 -26 0 -11 7 -21 8 -21 4z"/>
<path d="M9722 3419 c-35 -38 -53 -88 -44 -116 5 -16 178 -18 187 -3 17 27
-60 160 -92 160 -8 0 -31 -18 -51 -41z"/>
<path d="M8957 3343 c-15 -15 -6 -44 17 -53 13 -5 27 -14 31 -19 3 -6 21 -11
40 -11 50 0 68 -23 60 -79 -16 -104 -66 -181 -118 -181 -55 0 -86 -37 -56 -67
16 -16 100 -3 130 20 27 19 79 113 79 141 0 8 5 18 10 21 6 3 10 39 10 80 0
66 -3 76 -28 103 -22 23 -34 29 -55 25 -16 -3 -37 1 -52 11 -25 17 -57 21 -68
9z"/>
<path d="M10160 3329 c0 -11 5 -17 10 -14 6 3 10 13 10 21 0 8 -4 14 -10 14
-5 0 -10 -9 -10 -21z"/>
<path d="M10110 3290 c0 -5 6 -9 12 -7 19 3 22 -39 4 -46 -11 -5 -16 0 -16 14
0 11 -4 17 -10 14 -5 -3 -10 -20 -10 -37 0 -22 4 -29 14 -25 8 3 17 -1 20 -9
3 -8 12 -14 21 -14 17 0 22 -55 5 -65 -15 -9 -12 -25 5 -25 8 0 17 10 20 23 4
12 16 27 28 32 12 6 24 19 26 30 3 20 3 20 -18 0 -29 -25 -41 -8 -34 46 4 29
1 45 -12 59 -19 21 -55 27 -55 10z"/>
<path d="M10075 3168 c-4 -10 -4 -26 0 -35 8 -17 8 -17 12 0 3 9 3 25 0 35 -4
16 -4 16 -12 0z"/>
<path d="M8676 3057 c-33 -24 -16 -51 36 -58 26 -4 52 -10 58 -14 12 -7 40 12
40 27 0 5 -11 20 -25 33 -27 28 -80 33 -109 12z"/>
<path d="M10125 2904 c2 -36 7 -70 12 -75 6 -6 8 13 7 48 -1 32 -3 66 -3 76
-1 9 -5 17 -10 17 -5 0 -7 -30 -6 -66z"/>
<path d="M9990 2876 c0 -20 25 -37 44 -30 23 9 20 31 -6 38 -33 8 -38 8 -38
-8z"/>
<path d="M9817 2714 c-3 -4 -2 -15 4 -26 5 -10 7 -23 4 -28 -3 -6 -1 -10 4
-10 6 0 11 5 11 10 0 6 7 10 16 10 9 0 14 5 12 12 -6 16 -43 40 -51 32z"/>
<path d="M9987 2674 c-2 -13 1 -32 8 -41 7 -9 11 -23 8 -30 -3 -8 2 -13 12
-13 12 0 15 5 11 16 -3 9 -6 31 -6 49 0 40 -26 55 -33 19z"/>
<path d="M9843 2605 c-18 -20 -16 -64 2 -71 8 -4 23 -3 32 0 12 5 14 9 5 18
-7 7 -12 25 -12 40 0 31 -8 35 -27 13z"/>
<path d="M9950 2586 c0 -7 6 -19 14 -25 19 -16 32 5 16 24 -16 19 -30 19 -30
1z"/>
<path d="M9815 2511 c-3 -5 -1 -12 5 -16 5 -3 10 1 10 9 0 18 -6 21 -15 7z"/>
<path d="M9883 2503 c-7 -3 -13 -18 -13 -34 0 -28 1 -28 20 -12 30 26 24 57
-7 46z"/>
<path d="M9802 2454 c1 -9 9 -19 16 -22 9 -3 13 2 10 14 -1 9 -9 19 -16 22 -9
3 -13 -2 -10 -14z"/>
<path d="M9858 2422 c-22 -4 -23 -16 -3 -32 8 -6 15 -34 17 -63 3 -51 3 -51 8
17 6 75 3 84 -22 78z"/>
<path d="M8107 2413 c-4 -3 -7 -29 -7 -57 -1 -71 -20 -91 -93 -99 -31 -3 -59
-1 -62 4 -9 14 -25 11 -25 -6 0 -11 -11 -15 -36 -15 -61 0 -35 -25 29 -28 31
-2 57 -7 57 -12 0 -6 -7 -10 -15 -10 -8 0 -15 -5 -15 -11 0 -7 10 -9 28 -5 15
4 41 8 57 9 27 3 75 22 75 31 0 2 -18 2 -40 -1 -26 -4 -40 -2 -40 6 0 6 11 11
24 11 14 0 28 5 32 11 3 6 15 9 25 6 18 -5 19 2 19 84 0 89 -1 95 -13 82z"/>
<path d="M9660 2378 c0 -24 -5 -49 -12 -56 -9 -9 -7 -12 10 -12 20 0 22 5 22
49 0 28 -4 53 -10 56 -6 4 -10 -11 -10 -37z"/>
<path d="M9520 2360 c0 -16 5 -30 11 -30 6 0 9 7 6 15 -4 8 -2 17 3 20 15 9
12 25 -5 25 -10 0 -15 -10 -15 -30z"/>
<path d="M7815 2320 c-8 -12 20 -24 35 -15 6 3 8 11 5 16 -8 12 -32 12 -40 -1z"/>
<path d="M8406 2301 c-9 -15 4 -181 16 -205 7 -12 6 -22 -1 -29 -16 -16 -13
-27 8 -27 10 0 24 -7 32 -16 7 -8 25 -22 41 -30 18 -10 28 -22 28 -38 0 -25
25 -82 41 -91 12 -8 12 -5 -6 45 -8 23 -12 46 -9 52 7 11 29 5 30 -8 4 -44 48
-94 66 -76 8 8 7 13 -5 18 -9 3 -25 21 -36 39 l-20 34 26 16 c22 15 26 15 42
1 25 -23 27 -20 23 19 -2 19 1 41 7 49 6 7 8 21 5 30 -4 9 0 24 9 34 9 10 14
30 12 47 -2 17 3 40 11 52 19 30 18 43 -4 43 -38 0 -61 -57 -62 -157 -1 -52
-40 -34 -40 18 0 20 -8 30 -30 39 -51 21 -63 8 -58 -60 5 -68 -8 -82 -41 -46
-24 26 -26 36 -7 36 7 0 19 7 26 15 11 13 7 15 -23 15 l-35 0 -6 63 c-8 96
-10 105 -22 117 -8 8 -14 9 -18 1z m178 -168 c2 -10 5 -39 5 -65 0 -35 -4 -48
-14 -48 -21 0 -27 17 -15 39 7 13 7 22 0 26 -11 7 -14 48 -3 58 11 12 21 8 27
-10z"/>
<path d="M9745 2299 c-4 -6 -5 -12 -2 -15 7 -7 37 7 37 17 0 13 -27 11 -35 -2z"/>
<path d="M7767 2273 c-16 -15 -5 -23 33 -23 43 0 54 14 18 24 -30 8 -43 7 -51
-1z"/>
<path d="M9299 2276 c-5 -26 -1 -56 6 -56 12 0 16 48 4 55 -5 4 -9 4 -10 1z"/>
<path d="M9457 2273 c-4 -3 -7 -21 -7 -40 0 -23 -5 -33 -15 -33 -8 0 -15 5
-15 10 0 6 -4 10 -10 10 -16 0 -12 -18 10 -40 16 -16 17 -20 5 -20 -8 0 -15
-5 -15 -11 0 -15 42 -7 50 11 4 8 13 33 20 55 7 22 15 46 17 53 5 13 -28 17
-40 5z"/>
<path d="M9705 2269 c-4 -6 -5 -13 -2 -16 7 -7 27 6 27 18 0 12 -17 12 -25 -2z"/>
<path d="M9882 2261 c2 -7 7 -12 11 -12 12 1 9 15 -3 20 -7 2 -11 -2 -8 -8z"/>
<path d="M8313 2244 c-7 -18 12 -64 27 -64 5 0 10 18 10 40 0 29 -4 40 -15 40
-9 0 -18 -7 -22 -16z"/>
<path d="M9070 2212 c0 -15 -6 -34 -12 -41 -11 -10 -9 -16 10 -28 12 -9 22
-26 22 -39 0 -13 4 -24 10 -24 5 0 7 21 4 50 l-5 50 50 0 c44 0 51 3 51 20 0
11 -5 18 -12 16 -7 -3 -32 -7 -55 -10 -38 -6 -43 -4 -43 14 0 11 -4 20 -10 20
-5 0 -10 -13 -10 -28z"/>
<path d="M8269 2189 c-8 -16 -17 -20 -39 -15 -19 3 -33 0 -41 -10 -10 -12 -23
-14 -51 -10 -41 7 -46 1 -24 -29 12 -16 17 -17 45 -6 17 8 31 17 31 22 0 5 7
9 15 9 20 0 19 -19 -2 -42 -9 -10 -11 -18 -5 -18 6 0 19 12 29 27 10 14 30 38
46 54 29 29 33 39 17 39 -5 0 -14 -9 -21 -21z"/>
<path d="M9268 2179 c-10 -10 -28 -19 -40 -19 -13 0 -30 -4 -38 -10 -11 -7 -9
-11 12 -19 14 -5 28 -16 31 -23 7 -20 41 4 45 33 2 13 8 28 13 34 11 11 12 25
2 24 -5 0 -16 -9 -25 -20z"/>
<path d="M8900 2160 c0 -5 9 -10 19 -10 11 0 23 5 26 10 4 6 -5 10 -19 10 -14
0 -26 -4 -26 -10z"/>
<path d="M9041 2115 c-1 -28 -20 -45 -48 -45 -27 0 -32 -19 -5 -21 54 -4 75
15 63 56 -7 22 -10 24 -10 10z"/>
<path d="M8376 2014 c-4 -9 -4 -19 -2 -21 8 -8 26 8 26 23 0 19 -16 18 -24 -2z"/>
<path d="M7487 1058 c-8 -5 -1 -17 21 -38 18 -16 37 -30 42 -30 25 0 40 15 40
40 0 26 -3 28 -46 32 -25 2 -51 0 -57 -4z"/>
<path d="M8020 7346 c0 -2 7 -6 15 -10 8 -3 15 -1 15 4 0 6 -7 10 -15 10 -8 0
-15 -2 -15 -4z"/>
<path d="M8056 7311 c5 -5 23 -13 39 -16 29 -7 29 -7 10 8 -21 17 -66 24 -49
8z"/>
<path d="M8296 7185 c-10 -28 24 -58 60 -53 l29 4 -33 14 c-19 7 -37 22 -41
33 -7 19 -8 19 -15 2z"/>
<path d="M7931 6846 c7 -6 79 -46 84 -46 18 0 -2 18 -35 33 -38 16 -58 22 -49
13z"/>
<path d="M8025 6710 c3 -5 11 -10 16 -10 6 0 7 5 4 10 -3 6 -11 10 -16 10 -6
0 -7 -4 -4 -10z"/>
<path d="M460 6800 c0 -57 1 -60 25 -60 29 0 65 32 65 58 0 32 -29 62 -61 62
-29 0 -29 0 -29 -60z"/>
<path d="M2470 6834 c-6 -14 -10 -61 -10 -104 0 -99 11 -130 45 -130 34 0 45
31 45 130 0 99 -11 130 -45 130 -18 0 -28 -7 -35 -26z"/>
<path d="M2829 6843 c-19 -22 -25 -174 -9 -213 15 -35 53 -41 70 -11 5 11 10
61 10 111 0 50 -5 100 -10 111 -13 23 -43 25 -61 2z"/>
<path d="M6660 6800 c0 -57 1 -60 25 -60 52 0 85 69 49 104 -8 9 -29 16 -45
16 -29 0 -29 0 -29 -60z"/>
<path d="M765 6639 c-9 -27 6 -42 36 -37 18 2 25 10 27 31 3 24 0 27 -27 27
-21 0 -31 -6 -36 -21z"/>
<path d="M4323 6773 c-18 -7 -35 -80 -27 -116 9 -43 22 -57 50 -57 29 0 44 32
44 93 0 63 -28 96 -67 80z"/>
<path d="M5697 6653 c-4 -3 -7 -17 -7 -30 0 -17 6 -23 23 -23 28 0 47 17 47
42 0 13 -8 18 -28 18 -16 0 -32 -3 -35 -7z"/>
<path d="M10726 6164 c-22 -21 -31 -58 -31 -124 0 -74 11 -107 40 -126 34 -22
80 -4 94 38 14 40 14 136 0 177 -17 49 -71 68 -103 35z"/>
<path d="M12350 6120 c0 -50 0 -50 33 -50 40 0 57 15 57 52 0 30 -23 48 -64
48 -24 0 -26 -3 -26 -50z"/>
<path d="M13726 6148 c-20 -28 -22 -181 -3 -218 15 -30 39 -36 61 -15 23 23
23 216 0 239 -21 22 -40 20 -58 -6z"/>
<path d="M14060 6151 c-36 -68 26 -135 75 -81 18 20 15 61 -7 87 -16 19 -56
15 -68 -6z"/>
<path d="M14427 6156 c-32 -32 -32 -210 1 -242 41 -41 72 11 72 121 0 111 -31
162 -73 121z"/>
<path d="M18747 6083 c-4 -3 -7 -19 -7 -33 0 -54 57 -67 74 -18 7 19 6 31 -4
42 -13 16 -51 22 -63 9z"/>
<path d="M15120 6061 c-15 -30 -12 -113 6 -139 18 -26 37 -28 58 -6 19 19 22
134 4 152 -18 18 -56 14 -68 -7z"/>
<path d="M15860 6061 c-5 -11 -10 -47 -10 -81 0 -56 2 -61 26 -72 23 -11 29
-10 45 11 13 16 19 39 19 73 0 62 -13 88 -45 88 -14 0 -29 -8 -35 -19z"/>
<path d="M16440 6061 c-5 -11 -10 -44 -10 -74 0 -62 23 -94 59 -82 37 12 50
122 18 163 -15 19 -55 14 -67 -7z"/>
<path d="M16790 6061 c-15 -30 -12 -113 6 -139 24 -34 52 -28 70 15 17 39 13
106 -8 130 -16 19 -56 16 -68 -6z"/>
<path d="M17662 6068 c-18 -18 -16 -142 3 -158 50 -41 97 61 65 144 -10 28
-47 35 -68 14z"/>
<path d="M10130 5593 c0 -29 12 -24 17 7 2 11 -2 20 -7 20 -6 0 -10 -12 -10
-27z"/>
<path d="M10110 5549 c0 -5 5 -7 10 -4 6 3 10 8 10 11 0 2 -4 4 -10 4 -5 0
-10 -5 -10 -11z"/>
<path d="M10160 5073 c0 -5 11 -13 25 -20 22 -10 25 -9 25 8 0 14 -7 19 -25
19 -14 0 -25 -3 -25 -7z"/>
<path d="M10230 4990 c0 -22 4 -40 8 -40 5 0 9 18 10 40 1 22 -3 40 -8 40 -6
0 -10 -18 -10 -40z"/>
<path d="M7270 4822 c0 -4 14 -18 30 -30 32 -24 42 -15 13 10 -27 22 -43 30
-43 20z"/>
<path d="M7484 4789 c-3 -6 -1 -16 5 -22 8 -8 11 -5 11 11 0 24 -5 28 -16 11z"/>
<path d="M6990 4760 c0 -5 5 -10 10 -10 6 0 10 5 10 10 0 6 -4 10 -10 10 -5 0
-10 -4 -10 -10z"/>
<path d="M1370 4494 c-6 -14 -10 -27 -10 -30 0 -2 20 -4 45 -4 46 0 53 7 35
41 -16 29 -58 25 -70 -7z"/>
<path d="M1694 4386 c-17 -46 34 -78 56 -36 6 12 9 28 6 36 -7 18 -55 18 -62
0z"/>
<path d="M2991 4496 c-16 -19 -16 -133 0 -152 18 -21 51 -13 66 16 15 30 17
89 3 124 -11 29 -50 36 -69 12z"/>
<path d="M3480 4491 c-5 -11 -10 -43 -10 -71 0 -60 13 -90 40 -90 35 0 50 28
50 90 0 32 -3 65 -6 74 -9 23 -61 21 -74 -3z"/>
<path d="M4060 4491 c-15 -30 -12 -113 6 -139 18 -26 46 -29 65 -6 18 22 18
126 0 148 -18 22 -58 20 -71 -3z"/>
<path d="M4410 4484 c-26 -68 -1 -158 43 -152 41 6 62 95 35 153 -16 35 -65
35 -78 -1z"/>
<path d="M5282 4498 c-18 -18 -16 -142 3 -158 50 -41 97 61 65 144 -10 28 -47
35 -68 14z"/>
<path d="M11427 4263 c-4 -3 -7 -22 -7 -40 0 -33 1 -34 38 -31 33 3 37 6 40
32 2 16 -2 32 -10 37 -16 10 -52 12 -61 2z"/>
<path d="M11422 4063 c3 -41 6 -48 26 -51 32 -5 72 24 72 51 0 33 -19 47 -63
47 l-38 0 3 -47z"/>
<path d="M15632 4178 c-31 -31 0 -85 42 -74 24 6 27 11 24 44 -3 31 -7 37 -28
40 -14 2 -31 -3 -38 -10z"/>
<path d="M11792 4178 c-7 -7 -12 -20 -12 -30 0 -14 8 -18 40 -18 32 0 40 4 40
18 0 22 -19 42 -40 42 -9 0 -21 -5 -28 -12z"/>
<path d="M12470 4169 c-18 -33 -7 -45 39 -41 43 4 48 11 31 43 -14 26 -56 25
-70 -2z"/>
<path d="M13110 4171 c-18 -34 -11 -41 35 -41 25 0 45 2 45 4 0 3 -4 16 -10
30 -12 32 -54 36 -70 7z"/>
<path d="M13864 4056 c-17 -46 34 -78 56 -36 6 12 9 28 6 36 -7 18 -55 18 -62
0z"/>
<path d="M14712 4168 c-7 -7 -12 -40 -12 -78 0 -38 5 -71 12 -78 19 -19 45
-14 62 10 18 26 21 109 6 139 -12 21 -50 25 -68 7z"/>
<path d="M15292 4168 c-32 -40 -19 -151 19 -163 36 -12 59 20 59 82 0 30 -5
63 -10 74 -12 21 -52 26 -68 7z"/>
<path d="M16194 4056 c-11 -29 1 -51 26 -51 21 0 26 5 28 33 3 29 1 32 -23 32
-14 0 -28 -6 -31 -14z"/>
<path d="M17540 4169 c-18 -32 -7 -44 36 -40 21 1 40 4 42 6 1 1 -2 14 -7 29
-13 33 -55 36 -71 5z"/>
<path d="M2857 3772 c-20 -22 -24 -131 -5 -150 18 -18 56 -14 68 7 14 27 13
134 -2 149 -17 17 -42 15 -61 -6z"/>
<path d="M4396 3768 c-18 -26 -21 -109 -6 -139 12 -21 50 -25 68 -7 7 7 12 41
12 84 0 56 -3 73 -16 78 -28 11 -42 7 -58 -16z"/>
<path d="M1080 3771 c-5 -11 -10 -43 -10 -71 0 -64 13 -90 45 -90 32 0 45 26
45 90 0 64 -13 90 -45 90 -14 0 -29 -8 -35 -19z"/>
<path d="M2012 3668 c-15 -15 -16 -45 -1 -53 5 -4 21 -4 35 -1 19 5 24 13 24
36 0 25 -4 30 -23 30 -13 0 -28 -5 -35 -12z"/>
<path d="M3201 3786 c-20 -24 -9 -51 21 -54 44 -5 60 8 45 38 -15 29 -48 37
-66 16z"/>
<path d="M11782 3448 c-18 -18 -16 -142 3 -158 50 -41 97 61 65 144 -10 28
-47 35 -68 14z"/>
<path d="M14637 3399 c-19 -11 -19 -41 -1 -101 6 -21 44 -24 62 -6 13 13 16
75 6 102 -7 18 -40 20 -67 5z"/>
<path d="M11422 3448 c-7 -7 -12 -40 -12 -78 0 -71 10 -90 47 -90 30 0 43 28
43 90 0 28 -5 60 -10 71 -12 21 -50 25 -68 7z"/>
<path d="M12420 3445 c-19 -23 -23 -105 -8 -135 19 -36 61 -39 76 -5 15 32 16
110 2 136 -13 23 -52 25 -70 4z"/>
<path d="M12944 3445 c-21 -31 -11 -45 32 -45 39 0 51 18 34 49 -15 28 -46 26
-66 -4z"/>
<path d="M13512 3458 c-5 -7 -12 -22 -14 -33 -2 -17 3 -21 35 -23 42 -4 56 13
37 47 -12 23 -42 28 -58 9z"/>
<path d="M15620 3445 c-19 -23 -23 -105 -8 -135 32 -60 88 -21 88 60 0 73 -46
116 -80 75z"/>
<path d="M380 1835 l0 -55 35 0 c36 0 55 20 55 58 0 26 -31 52 -63 52 -26 0
-27 -2 -27 -55z"/>
<path d="M1920 1834 l0 -55 32 3 c23 2 37 11 47 29 13 24 13 29 -2 53 -12 18
-26 26 -47 26 -30 0 -30 -1 -30 -56z"/>
<path d="M4562 1808 c-7 -7 -12 -21 -12 -33 0 -43 50 -62 70 -26 14 27 13 37
-6 55 -19 19 -36 20 -52 4z"/>
<path d="M2466 1794 c-16 -16 -22 -96 -10 -128 12 -31 42 -38 64 -16 40 40 22
160 -25 160 -7 0 -21 -7 -29 -16z"/>
<path d="M2796 1794 c-18 -18 -22 -104 -6 -135 12 -21 50 -25 68 -7 15 15 16
112 2 139 -13 23 -43 25 -64 3z"/>
<path d="M5366 1798 c-24 -34 -20 -38 30 -38 42 0 45 1 38 23 -13 42 -45 49
-68 15z"/>
<path d="M5685 1804 c-16 -16 -17 -46 -2 -45 4 1 21 1 37 1 22 0 30 5 30 18 0
39 -37 54 -65 26z"/>
<path d="M17043 1363 c-9 -3 -13 -30 -13 -84 0 -77 1 -79 27 -85 39 -10 63 24
63 88 0 77 -25 103 -77 81z"/>
<path d="M10162 1333 l3 -128 26 -3 c17 -2 37 6 55 21 24 21 28 33 32 91 7
104 -21 146 -94 146 l-25 0 3 -127z"/>
<path d="M10552 1357 c-38 -46 -15 -167 31 -167 14 0 30 7 37 15 18 22 24 88
10 129 -10 30 -16 36 -40 36 -15 0 -32 -6 -38 -13z"/>
<path d="M12280 1360 c-18 -33 -5 -50 35 -50 24 0 38 5 42 16 16 43 -55 74
-77 34z"/>
<path d="M12600 1245 c-17 -21 -3 -55 24 -55 28 0 46 18 46 47 0 19 -5 23 -29
23 -16 0 -34 -7 -41 -15z"/>
<path d="M14222 1358 c-7 -7 -12 -40 -12 -78 0 -71 10 -90 47 -90 38 0 61 72
43 139 -9 35 -15 41 -38 41 -16 0 -33 -5 -40 -12z"/>
<path d="M14802 1358 c-15 -15 -16 -122 -2 -149 12 -22 52 -25 68 -6 19 22 25
93 12 131 -9 30 -16 36 -39 36 -15 0 -32 -5 -39 -12z"/>
<path d="M15150 1351 c-5 -11 -10 -43 -10 -71 0 -63 13 -90 44 -90 33 0 48 23
53 78 7 68 -9 102 -46 102 -20 0 -34 -7 -41 -19z"/>
<path d="M16022 1361 c-9 -5 -12 -30 -10 -87 3 -77 4 -79 30 -82 18 -2 31 4
42 20 18 26 22 109 6 139 -11 20 -45 25 -68 10z"/>
<path d="M17610 1334 c-14 -41 -8 -107 10 -129 18 -21 57 -18 70 4 14 27 13
134 -2 149 -7 7 -24 12 -39 12 -23 0 -30 -6 -39 -36z"/>
<path d="M374 1105 c-21 -32 -15 -122 10 -141 26 -19 54 -5 67 33 11 36 5 99
-13 121 -17 20 -46 14 -64 -13z"/>
<path d="M1374 1115 c-21 -31 -11 -45 32 -45 39 0 51 18 34 49 -15 28 -46 26
-66 -4z"/>
<path d="M2766 1124 c-9 -8 -16 -24 -16 -35 0 -15 7 -19 39 -19 48 0 58 13 37
45 -19 29 -38 32 -60 9z"/>
<path d="M4230 1110 c-6 -11 -10 -46 -8 -77 2 -44 7 -59 25 -70 19 -13 24 -12
42 6 23 23 29 107 11 142 -14 25 -56 25 -70 -1z"/>
<path d="M5302 1008 c-28 -28 2 -67 37 -48 30 16 29 60 -2 60 -13 0 -28 -5
-35 -12z"/>
</g>
</svg>
